<mxfile host="app.diagrams.net" modified="2020-12-02T02:35:33.011Z" agent="5.0 (Windows)" etag="eCQ2xa420yDJNMDSeUtn" version="13.10.4" type="github">
  <diagram id="cfRQvEGs_sG9bWEdkFJJ" name="Decoder_scheme_1">
    <mxGraphModel dx="6898" dy="1273" grid="1" gridSize="10" guides="1" tooltips="1" connect="1" arrows="1" fold="1" page="1" pageScale="1" pageWidth="827" pageHeight="1169" math="0" shadow="0">
      <root>
        <mxCell id="0" />
        <mxCell id="1" parent="0" />
        <mxCell id="dvFQtftQSCuBPZ-nTVd1-1" value="" style="endArrow=none;html=1;" edge="1" parent="1">
          <mxGeometry width="50" height="50" relative="1" as="geometry">
            <mxPoint x="-4602.18" y="120" as="sourcePoint" />
            <mxPoint x="-4602.18" y="80" as="targetPoint" />
          </mxGeometry>
        </mxCell>
        <mxCell id="dvFQtftQSCuBPZ-nTVd1-2" value="" style="endArrow=none;html=1;" edge="1" parent="1">
          <mxGeometry width="50" height="50" relative="1" as="geometry">
            <mxPoint x="-4602.18" y="80" as="sourcePoint" />
            <mxPoint x="-4562.18" y="80" as="targetPoint" />
            <Array as="points">
              <mxPoint x="-4582.18" y="79.99999999999997" />
            </Array>
          </mxGeometry>
        </mxCell>
        <mxCell id="dvFQtftQSCuBPZ-nTVd1-3" value="" style="endArrow=none;html=1;" edge="1" parent="1">
          <mxGeometry width="50" height="50" relative="1" as="geometry">
            <mxPoint x="-4562.18" y="80" as="sourcePoint" />
            <mxPoint x="-4562.18" y="120" as="targetPoint" />
          </mxGeometry>
        </mxCell>
        <mxCell id="dvFQtftQSCuBPZ-nTVd1-4" value="" style="endArrow=none;html=1;" edge="1" parent="1">
          <mxGeometry width="50" height="50" relative="1" as="geometry">
            <mxPoint x="-4562.18" y="120" as="sourcePoint" />
            <mxPoint x="-4522.18" y="120" as="targetPoint" />
          </mxGeometry>
        </mxCell>
        <mxCell id="dvFQtftQSCuBPZ-nTVd1-5" value="" style="endArrow=none;html=1;" edge="1" parent="1">
          <mxGeometry width="50" height="50" relative="1" as="geometry">
            <mxPoint x="-4522.18" y="120" as="sourcePoint" />
            <mxPoint x="-4522.18" y="80" as="targetPoint" />
          </mxGeometry>
        </mxCell>
        <mxCell id="dvFQtftQSCuBPZ-nTVd1-6" value="" style="endArrow=none;html=1;" edge="1" parent="1">
          <mxGeometry width="50" height="50" relative="1" as="geometry">
            <mxPoint x="-4522.18" y="80" as="sourcePoint" />
            <mxPoint x="-4482.18" y="80" as="targetPoint" />
          </mxGeometry>
        </mxCell>
        <mxCell id="dvFQtftQSCuBPZ-nTVd1-7" value="" style="endArrow=none;html=1;" edge="1" parent="1">
          <mxGeometry width="50" height="50" relative="1" as="geometry">
            <mxPoint x="-4482.18" y="80" as="sourcePoint" />
            <mxPoint x="-4482.18" y="120" as="targetPoint" />
          </mxGeometry>
        </mxCell>
        <mxCell id="dvFQtftQSCuBPZ-nTVd1-8" value="" style="endArrow=none;html=1;" edge="1" parent="1">
          <mxGeometry width="50" height="50" relative="1" as="geometry">
            <mxPoint x="-4482.18" y="120" as="sourcePoint" />
            <mxPoint x="-4442.18" y="120" as="targetPoint" />
          </mxGeometry>
        </mxCell>
        <mxCell id="dvFQtftQSCuBPZ-nTVd1-9" value="" style="endArrow=none;html=1;" edge="1" parent="1">
          <mxGeometry width="50" height="50" relative="1" as="geometry">
            <mxPoint x="-4442.18" y="120" as="sourcePoint" />
            <mxPoint x="-4442.18" y="80" as="targetPoint" />
          </mxGeometry>
        </mxCell>
        <mxCell id="dvFQtftQSCuBPZ-nTVd1-10" value="" style="endArrow=none;html=1;" edge="1" parent="1">
          <mxGeometry width="50" height="50" relative="1" as="geometry">
            <mxPoint x="-4442.18" y="80" as="sourcePoint" />
            <mxPoint x="-4402.18" y="80" as="targetPoint" />
          </mxGeometry>
        </mxCell>
        <mxCell id="dvFQtftQSCuBPZ-nTVd1-11" value="" style="endArrow=none;html=1;" edge="1" parent="1">
          <mxGeometry width="50" height="50" relative="1" as="geometry">
            <mxPoint x="-4402.18" y="80" as="sourcePoint" />
            <mxPoint x="-4402.18" y="120" as="targetPoint" />
          </mxGeometry>
        </mxCell>
        <mxCell id="dvFQtftQSCuBPZ-nTVd1-12" value="" style="endArrow=none;html=1;" edge="1" parent="1">
          <mxGeometry width="50" height="50" relative="1" as="geometry">
            <mxPoint x="-4402.18" y="120" as="sourcePoint" />
            <mxPoint x="-4362.18" y="120" as="targetPoint" />
          </mxGeometry>
        </mxCell>
        <mxCell id="dvFQtftQSCuBPZ-nTVd1-13" value="" style="endArrow=none;html=1;" edge="1" parent="1">
          <mxGeometry width="50" height="50" relative="1" as="geometry">
            <mxPoint x="-4362.18" y="120" as="sourcePoint" />
            <mxPoint x="-4362.18" y="80" as="targetPoint" />
          </mxGeometry>
        </mxCell>
        <mxCell id="dvFQtftQSCuBPZ-nTVd1-14" value="" style="endArrow=none;html=1;" edge="1" parent="1">
          <mxGeometry width="50" height="50" relative="1" as="geometry">
            <mxPoint x="-4362.18" y="80" as="sourcePoint" />
            <mxPoint x="-4322.18" y="80" as="targetPoint" />
          </mxGeometry>
        </mxCell>
        <mxCell id="dvFQtftQSCuBPZ-nTVd1-15" value="" style="endArrow=none;html=1;" edge="1" parent="1">
          <mxGeometry width="50" height="50" relative="1" as="geometry">
            <mxPoint x="-4322.18" y="80" as="sourcePoint" />
            <mxPoint x="-4322.18" y="120" as="targetPoint" />
          </mxGeometry>
        </mxCell>
        <mxCell id="dvFQtftQSCuBPZ-nTVd1-16" value="" style="endArrow=none;html=1;" edge="1" parent="1">
          <mxGeometry width="50" height="50" relative="1" as="geometry">
            <mxPoint x="-4322.18" y="120" as="sourcePoint" />
            <mxPoint x="-4282.18" y="120" as="targetPoint" />
          </mxGeometry>
        </mxCell>
        <mxCell id="dvFQtftQSCuBPZ-nTVd1-17" value="" style="endArrow=none;html=1;" edge="1" parent="1">
          <mxGeometry width="50" height="50" relative="1" as="geometry">
            <mxPoint x="-4282.18" y="120" as="sourcePoint" />
            <mxPoint x="-4282.18" y="80" as="targetPoint" />
          </mxGeometry>
        </mxCell>
        <mxCell id="dvFQtftQSCuBPZ-nTVd1-18" value="" style="endArrow=none;html=1;" edge="1" parent="1">
          <mxGeometry width="50" height="50" relative="1" as="geometry">
            <mxPoint x="-4282.18" y="80" as="sourcePoint" />
            <mxPoint x="-4242.18" y="80" as="targetPoint" />
          </mxGeometry>
        </mxCell>
        <mxCell id="dvFQtftQSCuBPZ-nTVd1-19" value="" style="endArrow=none;html=1;" edge="1" parent="1">
          <mxGeometry width="50" height="50" relative="1" as="geometry">
            <mxPoint x="-4242.18" y="80" as="sourcePoint" />
            <mxPoint x="-4242.18" y="120" as="targetPoint" />
          </mxGeometry>
        </mxCell>
        <mxCell id="dvFQtftQSCuBPZ-nTVd1-20" value="" style="endArrow=none;html=1;" edge="1" parent="1">
          <mxGeometry width="50" height="50" relative="1" as="geometry">
            <mxPoint x="-4242.18" y="120" as="sourcePoint" />
            <mxPoint x="-4202.18" y="120" as="targetPoint" />
          </mxGeometry>
        </mxCell>
        <mxCell id="dvFQtftQSCuBPZ-nTVd1-21" value="" style="endArrow=none;html=1;" edge="1" parent="1">
          <mxGeometry width="50" height="50" relative="1" as="geometry">
            <mxPoint x="-4202.18" y="120" as="sourcePoint" />
            <mxPoint x="-4202.18" y="80" as="targetPoint" />
          </mxGeometry>
        </mxCell>
        <mxCell id="dvFQtftQSCuBPZ-nTVd1-22" value="" style="endArrow=none;html=1;" edge="1" parent="1">
          <mxGeometry width="50" height="50" relative="1" as="geometry">
            <mxPoint x="-4202.18" y="80" as="sourcePoint" />
            <mxPoint x="-4162.18" y="80" as="targetPoint" />
          </mxGeometry>
        </mxCell>
        <mxCell id="dvFQtftQSCuBPZ-nTVd1-23" value="" style="endArrow=none;html=1;" edge="1" parent="1">
          <mxGeometry width="50" height="50" relative="1" as="geometry">
            <mxPoint x="-4162.18" y="80" as="sourcePoint" />
            <mxPoint x="-4162.18" y="120" as="targetPoint" />
          </mxGeometry>
        </mxCell>
        <mxCell id="dvFQtftQSCuBPZ-nTVd1-24" value="" style="endArrow=none;html=1;" edge="1" parent="1">
          <mxGeometry width="50" height="50" relative="1" as="geometry">
            <mxPoint x="-4162.18" y="120" as="sourcePoint" />
            <mxPoint x="-4122.18" y="120" as="targetPoint" />
          </mxGeometry>
        </mxCell>
        <mxCell id="dvFQtftQSCuBPZ-nTVd1-25" value="" style="endArrow=none;html=1;" edge="1" parent="1">
          <mxGeometry width="50" height="50" relative="1" as="geometry">
            <mxPoint x="-4122.18" y="120" as="sourcePoint" />
            <mxPoint x="-4122.18" y="80" as="targetPoint" />
          </mxGeometry>
        </mxCell>
        <mxCell id="dvFQtftQSCuBPZ-nTVd1-26" value="" style="endArrow=none;html=1;" edge="1" parent="1">
          <mxGeometry width="50" height="50" relative="1" as="geometry">
            <mxPoint x="-4122.18" y="80" as="sourcePoint" />
            <mxPoint x="-4082.1800000000003" y="80" as="targetPoint" />
          </mxGeometry>
        </mxCell>
        <mxCell id="dvFQtftQSCuBPZ-nTVd1-27" value="" style="endArrow=none;html=1;" edge="1" parent="1">
          <mxGeometry width="50" height="50" relative="1" as="geometry">
            <mxPoint x="-4082.1800000000003" y="80" as="sourcePoint" />
            <mxPoint x="-4082.1800000000003" y="120" as="targetPoint" />
          </mxGeometry>
        </mxCell>
        <mxCell id="dvFQtftQSCuBPZ-nTVd1-28" value="" style="endArrow=none;html=1;" edge="1" parent="1">
          <mxGeometry width="50" height="50" relative="1" as="geometry">
            <mxPoint x="-4082.1800000000003" y="120" as="sourcePoint" />
            <mxPoint x="-4042.1800000000003" y="120" as="targetPoint" />
          </mxGeometry>
        </mxCell>
        <mxCell id="dvFQtftQSCuBPZ-nTVd1-29" value="" style="endArrow=none;html=1;" edge="1" parent="1">
          <mxGeometry width="50" height="50" relative="1" as="geometry">
            <mxPoint x="-4042.1800000000003" y="120" as="sourcePoint" />
            <mxPoint x="-4042.1800000000003" y="80" as="targetPoint" />
          </mxGeometry>
        </mxCell>
        <mxCell id="dvFQtftQSCuBPZ-nTVd1-30" value="" style="endArrow=none;html=1;" edge="1" parent="1">
          <mxGeometry width="50" height="50" relative="1" as="geometry">
            <mxPoint x="-4042.1800000000003" y="80" as="sourcePoint" />
            <mxPoint x="-4002.1800000000003" y="80" as="targetPoint" />
          </mxGeometry>
        </mxCell>
        <mxCell id="dvFQtftQSCuBPZ-nTVd1-31" value="" style="endArrow=none;html=1;" edge="1" parent="1">
          <mxGeometry width="50" height="50" relative="1" as="geometry">
            <mxPoint x="-4002.1800000000003" y="80" as="sourcePoint" />
            <mxPoint x="-4002.1800000000003" y="120" as="targetPoint" />
          </mxGeometry>
        </mxCell>
        <mxCell id="dvFQtftQSCuBPZ-nTVd1-32" value="" style="endArrow=none;html=1;" edge="1" parent="1">
          <mxGeometry width="50" height="50" relative="1" as="geometry">
            <mxPoint x="-4002.1800000000003" y="120" as="sourcePoint" />
            <mxPoint x="-3962.1800000000003" y="120" as="targetPoint" />
          </mxGeometry>
        </mxCell>
        <mxCell id="dvFQtftQSCuBPZ-nTVd1-33" value="" style="endArrow=none;html=1;" edge="1" parent="1">
          <mxGeometry width="50" height="50" relative="1" as="geometry">
            <mxPoint x="-4602" y="361.74000000000024" as="sourcePoint" />
            <mxPoint x="-4592" y="321.74000000000024" as="targetPoint" />
          </mxGeometry>
        </mxCell>
        <mxCell id="dvFQtftQSCuBPZ-nTVd1-34" value="" style="endArrow=none;html=1;" edge="1" parent="1">
          <mxGeometry width="50" height="50" relative="1" as="geometry">
            <mxPoint x="-4282" y="320.28000000000065" as="sourcePoint" />
            <mxPoint x="-4272" y="360.28000000000065" as="targetPoint" />
          </mxGeometry>
        </mxCell>
        <mxCell id="dvFQtftQSCuBPZ-nTVd1-35" value="" style="endArrow=none;html=1;" edge="1" parent="1">
          <mxGeometry width="50" height="50" relative="1" as="geometry">
            <mxPoint x="-4282" y="360.28000000000065" as="sourcePoint" />
            <mxPoint x="-4272" y="320.28000000000065" as="targetPoint" />
          </mxGeometry>
        </mxCell>
        <mxCell id="dvFQtftQSCuBPZ-nTVd1-36" value="" style="endArrow=none;html=1;" edge="1" parent="1">
          <mxGeometry width="50" height="50" relative="1" as="geometry">
            <mxPoint x="-4602" y="321.74000000000024" as="sourcePoint" />
            <mxPoint x="-4592" y="361.74000000000024" as="targetPoint" />
          </mxGeometry>
        </mxCell>
        <mxCell id="dvFQtftQSCuBPZ-nTVd1-37" value="A1" style="text;html=1;align=center;verticalAlign=middle;resizable=0;points=[];autosize=1;" vertex="1" parent="1">
          <mxGeometry x="-4571.83" y="330.94" width="30" height="20" as="geometry" />
        </mxCell>
        <mxCell id="dvFQtftQSCuBPZ-nTVd1-38" value="&lt;b&gt;&lt;font face=&quot;Times New Roman&quot;&gt;haddr&lt;/font&gt;&lt;/b&gt;" style="text;html=1;strokeColor=none;fillColor=none;align=center;verticalAlign=middle;whiteSpace=wrap;rounded=0;" vertex="1" parent="1">
          <mxGeometry x="-4732" y="331.7400000000002" width="40" height="20" as="geometry" />
        </mxCell>
        <mxCell id="dvFQtftQSCuBPZ-nTVd1-39" value="" style="endArrow=none;html=1;" edge="1" parent="1">
          <mxGeometry width="50" height="50" relative="1" as="geometry">
            <mxPoint x="-4682" y="361.1100000000001" as="sourcePoint" />
            <mxPoint x="-4282" y="360.7399999999998" as="targetPoint" />
          </mxGeometry>
        </mxCell>
        <mxCell id="dvFQtftQSCuBPZ-nTVd1-40" value="" style="endArrow=none;html=1;" edge="1" parent="1">
          <mxGeometry width="50" height="50" relative="1" as="geometry">
            <mxPoint x="-4682" y="321.1100000000001" as="sourcePoint" />
            <mxPoint x="-4282" y="320.7399999999998" as="targetPoint" />
          </mxGeometry>
        </mxCell>
        <mxCell id="dvFQtftQSCuBPZ-nTVd1-41" value="A2" style="text;html=1;strokeColor=none;fillColor=none;align=center;verticalAlign=middle;whiteSpace=wrap;rounded=0;" vertex="1" parent="1">
          <mxGeometry x="-4262" y="330.11000000000007" width="40" height="20" as="geometry" />
        </mxCell>
        <mxCell id="dvFQtftQSCuBPZ-nTVd1-42" value="" style="endArrow=none;html=1;" edge="1" parent="1">
          <mxGeometry width="50" height="50" relative="1" as="geometry">
            <mxPoint x="-4272" y="320.28000000000065" as="sourcePoint" />
            <mxPoint x="-4202" y="320.28000000000065" as="targetPoint" />
          </mxGeometry>
        </mxCell>
        <mxCell id="dvFQtftQSCuBPZ-nTVd1-43" value="" style="endArrow=none;html=1;" edge="1" parent="1">
          <mxGeometry width="50" height="50" relative="1" as="geometry">
            <mxPoint x="-4272" y="360.28000000000065" as="sourcePoint" />
            <mxPoint x="-4202" y="360.28000000000065" as="targetPoint" />
          </mxGeometry>
        </mxCell>
        <mxCell id="dvFQtftQSCuBPZ-nTVd1-44" value="" style="endArrow=none;html=1;" edge="1" parent="1">
          <mxGeometry width="50" height="50" relative="1" as="geometry">
            <mxPoint x="-4202" y="320.28000000000065" as="sourcePoint" />
            <mxPoint x="-4192" y="360.28000000000065" as="targetPoint" />
          </mxGeometry>
        </mxCell>
        <mxCell id="dvFQtftQSCuBPZ-nTVd1-45" value="" style="endArrow=none;html=1;" edge="1" parent="1">
          <mxGeometry width="50" height="50" relative="1" as="geometry">
            <mxPoint x="-4202" y="360.28000000000065" as="sourcePoint" />
            <mxPoint x="-4192" y="320.28000000000065" as="targetPoint" />
          </mxGeometry>
        </mxCell>
        <mxCell id="dvFQtftQSCuBPZ-nTVd1-46" value="" style="endArrow=none;html=1;" edge="1" parent="1">
          <mxGeometry width="50" height="50" relative="1" as="geometry">
            <mxPoint x="-4042" y="320.9399999999996" as="sourcePoint" />
            <mxPoint x="-4032" y="360.9399999999996" as="targetPoint" />
          </mxGeometry>
        </mxCell>
        <mxCell id="dvFQtftQSCuBPZ-nTVd1-47" value="" style="endArrow=none;html=1;" edge="1" parent="1">
          <mxGeometry width="50" height="50" relative="1" as="geometry">
            <mxPoint x="-4042" y="360.9399999999996" as="sourcePoint" />
            <mxPoint x="-4032" y="320.9399999999996" as="targetPoint" />
          </mxGeometry>
        </mxCell>
        <mxCell id="dvFQtftQSCuBPZ-nTVd1-48" value="B1" style="text;html=1;align=center;verticalAlign=middle;resizable=0;points=[];autosize=1;" vertex="1" parent="1">
          <mxGeometry x="-4167" y="330.94" width="30" height="20" as="geometry" />
        </mxCell>
        <mxCell id="dvFQtftQSCuBPZ-nTVd1-49" value="C2" style="text;html=1;strokeColor=none;fillColor=none;align=center;verticalAlign=middle;whiteSpace=wrap;rounded=0;" vertex="1" parent="1">
          <mxGeometry x="-4022" y="331.5700000000002" width="40" height="20" as="geometry" />
        </mxCell>
        <mxCell id="dvFQtftQSCuBPZ-nTVd1-50" value="" style="endArrow=none;html=1;" edge="1" parent="1">
          <mxGeometry width="50" height="50" relative="1" as="geometry">
            <mxPoint x="-4032" y="320.9399999999996" as="sourcePoint" />
            <mxPoint x="-3882" y="320.99999999999955" as="targetPoint" />
          </mxGeometry>
        </mxCell>
        <mxCell id="dvFQtftQSCuBPZ-nTVd1-51" value="" style="endArrow=none;html=1;" edge="1" parent="1">
          <mxGeometry width="50" height="50" relative="1" as="geometry">
            <mxPoint x="-4032" y="360.9399999999996" as="sourcePoint" />
            <mxPoint x="-3882" y="360.99999999999955" as="targetPoint" />
          </mxGeometry>
        </mxCell>
        <mxCell id="dvFQtftQSCuBPZ-nTVd1-52" value="" style="endArrow=none;html=1;" edge="1" parent="1">
          <mxGeometry width="50" height="50" relative="1" as="geometry">
            <mxPoint x="-3882.000000000001" y="320.00000000000045" as="sourcePoint" />
            <mxPoint x="-3872.000000000001" y="360.00000000000045" as="targetPoint" />
          </mxGeometry>
        </mxCell>
        <mxCell id="dvFQtftQSCuBPZ-nTVd1-53" value="" style="endArrow=none;html=1;" edge="1" parent="1">
          <mxGeometry width="50" height="50" relative="1" as="geometry">
            <mxPoint x="-3882.000000000001" y="360.00000000000045" as="sourcePoint" />
            <mxPoint x="-3872.000000000001" y="320.00000000000045" as="targetPoint" />
          </mxGeometry>
        </mxCell>
        <mxCell id="dvFQtftQSCuBPZ-nTVd1-54" value="" style="endArrow=none;html=1;" edge="1" parent="1">
          <mxGeometry width="50" height="50" relative="1" as="geometry">
            <mxPoint x="-4192" y="320.5300000000002" as="sourcePoint" />
            <mxPoint x="-4042" y="319.94000000000005" as="targetPoint" />
          </mxGeometry>
        </mxCell>
        <mxCell id="dvFQtftQSCuBPZ-nTVd1-55" value="" style="endArrow=none;html=1;" edge="1" parent="1">
          <mxGeometry width="50" height="50" relative="1" as="geometry">
            <mxPoint x="-4192" y="360.5300000000002" as="sourcePoint" />
            <mxPoint x="-4042" y="359.94000000000005" as="targetPoint" />
          </mxGeometry>
        </mxCell>
        <mxCell id="dvFQtftQSCuBPZ-nTVd1-56" value="" style="endArrow=none;html=1;" edge="1" parent="1">
          <mxGeometry width="50" height="50" relative="1" as="geometry">
            <mxPoint x="-3962.66" y="120" as="sourcePoint" />
            <mxPoint x="-3962.66" y="80" as="targetPoint" />
          </mxGeometry>
        </mxCell>
        <mxCell id="dvFQtftQSCuBPZ-nTVd1-57" value="" style="endArrow=none;html=1;" edge="1" parent="1">
          <mxGeometry width="50" height="50" relative="1" as="geometry">
            <mxPoint x="-3962.66" y="80" as="sourcePoint" />
            <mxPoint x="-3922.66" y="80" as="targetPoint" />
            <Array as="points">
              <mxPoint x="-3932.66" y="79.99999999999997" />
            </Array>
          </mxGeometry>
        </mxCell>
        <mxCell id="dvFQtftQSCuBPZ-nTVd1-58" value="" style="endArrow=none;html=1;" edge="1" parent="1">
          <mxGeometry width="50" height="50" relative="1" as="geometry">
            <mxPoint x="-3922.66" y="80" as="sourcePoint" />
            <mxPoint x="-3922.66" y="120" as="targetPoint" />
          </mxGeometry>
        </mxCell>
        <mxCell id="dvFQtftQSCuBPZ-nTVd1-59" value="" style="endArrow=none;html=1;" edge="1" parent="1">
          <mxGeometry width="50" height="50" relative="1" as="geometry">
            <mxPoint x="-3882.66" y="120" as="sourcePoint" />
            <mxPoint x="-3882.66" y="80" as="targetPoint" />
          </mxGeometry>
        </mxCell>
        <mxCell id="dvFQtftQSCuBPZ-nTVd1-60" value="" style="endArrow=none;html=1;" edge="1" parent="1">
          <mxGeometry width="50" height="50" relative="1" as="geometry">
            <mxPoint x="-3882.66" y="80" as="sourcePoint" />
            <mxPoint x="-3842.66" y="80" as="targetPoint" />
          </mxGeometry>
        </mxCell>
        <mxCell id="dvFQtftQSCuBPZ-nTVd1-61" value="" style="endArrow=none;html=1;" edge="1" parent="1">
          <mxGeometry width="50" height="50" relative="1" as="geometry">
            <mxPoint x="-3842.66" y="80" as="sourcePoint" />
            <mxPoint x="-3842.66" y="120" as="targetPoint" />
          </mxGeometry>
        </mxCell>
        <mxCell id="dvFQtftQSCuBPZ-nTVd1-62" value="" style="endArrow=none;html=1;" edge="1" parent="1">
          <mxGeometry width="50" height="50" relative="1" as="geometry">
            <mxPoint x="-3802.66" y="120" as="sourcePoint" />
            <mxPoint x="-3802.66" y="80" as="targetPoint" />
          </mxGeometry>
        </mxCell>
        <mxCell id="dvFQtftQSCuBPZ-nTVd1-63" value="" style="endArrow=none;html=1;" edge="1" parent="1">
          <mxGeometry width="50" height="50" relative="1" as="geometry">
            <mxPoint x="-3802.66" y="80" as="sourcePoint" />
            <mxPoint x="-3762.66" y="80" as="targetPoint" />
          </mxGeometry>
        </mxCell>
        <mxCell id="dvFQtftQSCuBPZ-nTVd1-64" value="" style="endArrow=none;html=1;" edge="1" parent="1">
          <mxGeometry width="50" height="50" relative="1" as="geometry">
            <mxPoint x="-3762.66" y="80" as="sourcePoint" />
            <mxPoint x="-3762.66" y="120" as="targetPoint" />
          </mxGeometry>
        </mxCell>
        <mxCell id="dvFQtftQSCuBPZ-nTVd1-65" value="" style="endArrow=none;html=1;" edge="1" parent="1">
          <mxGeometry width="50" height="50" relative="1" as="geometry">
            <mxPoint x="-3922.1800000000003" y="120" as="sourcePoint" />
            <mxPoint x="-3882.1800000000003" y="120" as="targetPoint" />
          </mxGeometry>
        </mxCell>
        <mxCell id="dvFQtftQSCuBPZ-nTVd1-66" value="" style="endArrow=none;html=1;" edge="1" parent="1">
          <mxGeometry width="50" height="50" relative="1" as="geometry">
            <mxPoint x="-3842.1800000000003" y="120" as="sourcePoint" />
            <mxPoint x="-3802.1800000000003" y="120" as="targetPoint" />
          </mxGeometry>
        </mxCell>
        <mxCell id="dvFQtftQSCuBPZ-nTVd1-67" value="" style="endArrow=none;html=1;fillColor=#99FFFF;" edge="1" parent="1">
          <mxGeometry width="50" height="50" relative="1" as="geometry">
            <mxPoint x="-3872" y="320" as="sourcePoint" />
            <mxPoint x="-3802" y="320" as="targetPoint" />
          </mxGeometry>
        </mxCell>
        <mxCell id="dvFQtftQSCuBPZ-nTVd1-68" value="" style="endArrow=none;html=1;fillColor=#99FFFF;" edge="1" parent="1">
          <mxGeometry width="50" height="50" relative="1" as="geometry">
            <mxPoint x="-3872" y="360" as="sourcePoint" />
            <mxPoint x="-3802" y="360" as="targetPoint" />
          </mxGeometry>
        </mxCell>
        <mxCell id="dvFQtftQSCuBPZ-nTVd1-69" value="&lt;b&gt;&lt;font face=&quot;Times New Roman&quot;&gt;DFSM&lt;/font&gt;&lt;/b&gt;" style="text;html=1;strokeColor=none;fillColor=none;align=center;verticalAlign=middle;whiteSpace=wrap;rounded=0;" vertex="1" parent="1">
          <mxGeometry x="-4732" y="251.14999999999995" width="40" height="20" as="geometry" />
        </mxCell>
        <mxCell id="dvFQtftQSCuBPZ-nTVd1-70" value="" style="endArrow=none;html=1;" edge="1" parent="1">
          <mxGeometry width="50" height="50" relative="1" as="geometry">
            <mxPoint x="-4682" y="241.6500000000001" as="sourcePoint" />
            <mxPoint x="-4672" y="281.6500000000001" as="targetPoint" />
          </mxGeometry>
        </mxCell>
        <mxCell id="dvFQtftQSCuBPZ-nTVd1-71" value="" style="endArrow=none;html=1;" edge="1" parent="1">
          <mxGeometry width="50" height="50" relative="1" as="geometry">
            <mxPoint x="-4682" y="281.6500000000001" as="sourcePoint" />
            <mxPoint x="-4672" y="241.6500000000001" as="targetPoint" />
          </mxGeometry>
        </mxCell>
        <mxCell id="dvFQtftQSCuBPZ-nTVd1-72" value="" style="endArrow=none;html=1;" edge="1" parent="1">
          <mxGeometry width="50" height="50" relative="1" as="geometry">
            <mxPoint x="-4512" y="241.94000000000005" as="sourcePoint" />
            <mxPoint x="-3562" y="242" as="targetPoint" />
          </mxGeometry>
        </mxCell>
        <mxCell id="dvFQtftQSCuBPZ-nTVd1-73" value="" style="endArrow=none;html=1;" edge="1" parent="1">
          <mxGeometry width="50" height="50" relative="1" as="geometry">
            <mxPoint x="-4512" y="282.44000000000005" as="sourcePoint" />
            <mxPoint x="-3562" y="282" as="targetPoint" />
          </mxGeometry>
        </mxCell>
        <mxCell id="dvFQtftQSCuBPZ-nTVd1-74" value="&lt;b&gt;&lt;font face=&quot;Times New Roman&quot;&gt;SLVSEL&lt;/font&gt;&lt;/b&gt;" style="text;html=1;strokeColor=none;fillColor=none;align=center;verticalAlign=middle;whiteSpace=wrap;rounded=0;" vertex="1" parent="1">
          <mxGeometry x="-4495" y="250.15000000000006" width="40" height="20" as="geometry" />
        </mxCell>
        <mxCell id="dvFQtftQSCuBPZ-nTVd1-75" value="" style="endArrow=none;html=1;" edge="1" parent="1">
          <mxGeometry width="50" height="50" relative="1" as="geometry">
            <mxPoint x="-4522" y="241.94000000000005" as="sourcePoint" />
            <mxPoint x="-4512" y="281.94000000000005" as="targetPoint" />
          </mxGeometry>
        </mxCell>
        <mxCell id="dvFQtftQSCuBPZ-nTVd1-76" value="" style="endArrow=none;html=1;" edge="1" parent="1">
          <mxGeometry width="50" height="50" relative="1" as="geometry">
            <mxPoint x="-4522" y="281.94000000000005" as="sourcePoint" />
            <mxPoint x="-4512" y="241.94000000000005" as="targetPoint" />
          </mxGeometry>
        </mxCell>
        <mxCell id="dvFQtftQSCuBPZ-nTVd1-77" value="&lt;b&gt;&lt;font face=&quot;Times New Roman&quot;&gt;IDLE&lt;/font&gt;&lt;/b&gt;" style="text;html=1;strokeColor=none;fillColor=none;align=center;verticalAlign=middle;whiteSpace=wrap;rounded=0;" vertex="1" parent="1">
          <mxGeometry x="-4661.83" y="251.9399999999999" width="40" height="20" as="geometry" />
        </mxCell>
        <mxCell id="dvFQtftQSCuBPZ-nTVd1-78" value="" style="endArrow=none;html=1;" edge="1" parent="1">
          <mxGeometry width="50" height="50" relative="1" as="geometry">
            <mxPoint x="-4672" y="241.73000000000047" as="sourcePoint" />
            <mxPoint x="-4522" y="241.94000000000005" as="targetPoint" />
          </mxGeometry>
        </mxCell>
        <mxCell id="dvFQtftQSCuBPZ-nTVd1-79" value="" style="endArrow=none;html=1;" edge="1" parent="1">
          <mxGeometry width="50" height="50" relative="1" as="geometry">
            <mxPoint x="-4672" y="282.23" as="sourcePoint" />
            <mxPoint x="-4522" y="281.94000000000005" as="targetPoint" />
          </mxGeometry>
        </mxCell>
        <mxCell id="dvFQtftQSCuBPZ-nTVd1-80" value="" style="endArrow=none;html=1;" edge="1" parent="1">
          <mxGeometry width="50" height="50" relative="1" as="geometry">
            <mxPoint x="-4681.660000000001" y="120" as="sourcePoint" />
            <mxPoint x="-4681.660000000001" y="80" as="targetPoint" />
          </mxGeometry>
        </mxCell>
        <mxCell id="dvFQtftQSCuBPZ-nTVd1-81" value="" style="endArrow=none;html=1;" edge="1" parent="1">
          <mxGeometry width="50" height="50" relative="1" as="geometry">
            <mxPoint x="-4681.660000000001" y="80" as="sourcePoint" />
            <mxPoint x="-4641.660000000001" y="80" as="targetPoint" />
            <Array as="points">
              <mxPoint x="-4661.66" y="79.99999999999997" />
            </Array>
          </mxGeometry>
        </mxCell>
        <mxCell id="dvFQtftQSCuBPZ-nTVd1-82" value="" style="endArrow=none;html=1;" edge="1" parent="1">
          <mxGeometry width="50" height="50" relative="1" as="geometry">
            <mxPoint x="-4641.660000000001" y="80" as="sourcePoint" />
            <mxPoint x="-4641.660000000001" y="120" as="targetPoint" />
          </mxGeometry>
        </mxCell>
        <mxCell id="dvFQtftQSCuBPZ-nTVd1-83" value="" style="endArrow=none;html=1;" edge="1" parent="1">
          <mxGeometry width="50" height="50" relative="1" as="geometry">
            <mxPoint x="-4641.660000000001" y="120" as="sourcePoint" />
            <mxPoint x="-4601.660000000001" y="120" as="targetPoint" />
          </mxGeometry>
        </mxCell>
        <mxCell id="dvFQtftQSCuBPZ-nTVd1-84" value="&lt;b&gt;&lt;font face=&quot;Times New Roman&quot;&gt;htrans&lt;/font&gt;&lt;/b&gt;" style="text;html=1;strokeColor=none;fillColor=none;align=center;verticalAlign=middle;whiteSpace=wrap;rounded=0;" vertex="1" parent="1">
          <mxGeometry x="-4731.83" y="170.59000000000012" width="40" height="20" as="geometry" />
        </mxCell>
        <mxCell id="dvFQtftQSCuBPZ-nTVd1-85" value="" style="endArrow=none;html=1;" edge="1" parent="1">
          <mxGeometry width="50" height="50" relative="1" as="geometry">
            <mxPoint x="-4682" y="162.42000000000007" as="sourcePoint" />
            <mxPoint x="-4672" y="202.42000000000007" as="targetPoint" />
          </mxGeometry>
        </mxCell>
        <mxCell id="dvFQtftQSCuBPZ-nTVd1-86" value="" style="endArrow=none;html=1;" edge="1" parent="1">
          <mxGeometry width="50" height="50" relative="1" as="geometry">
            <mxPoint x="-4682" y="202.42000000000007" as="sourcePoint" />
            <mxPoint x="-4672" y="162.42000000000007" as="targetPoint" />
          </mxGeometry>
        </mxCell>
        <mxCell id="dvFQtftQSCuBPZ-nTVd1-87" value="&lt;b&gt;&lt;font face=&quot;Times New Roman&quot;&gt;NONSEQ&lt;/font&gt;&lt;/b&gt;" style="text;html=1;strokeColor=none;fillColor=none;align=center;verticalAlign=middle;whiteSpace=wrap;rounded=0;" vertex="1" parent="1">
          <mxGeometry x="-4571.83" y="169.8299999999999" width="40" height="20" as="geometry" />
        </mxCell>
        <mxCell id="dvFQtftQSCuBPZ-nTVd1-88" value="" style="endArrow=none;html=1;" edge="1" parent="1">
          <mxGeometry width="50" height="50" relative="1" as="geometry">
            <mxPoint x="-4592" y="160.99999999999955" as="sourcePoint" />
            <mxPoint x="-4282" y="160.59000000000015" as="targetPoint" />
          </mxGeometry>
        </mxCell>
        <mxCell id="dvFQtftQSCuBPZ-nTVd1-89" value="" style="endArrow=none;html=1;" edge="1" parent="1">
          <mxGeometry width="50" height="50" relative="1" as="geometry">
            <mxPoint x="-4592" y="200.99999999999955" as="sourcePoint" />
            <mxPoint x="-4282" y="200.59000000000015" as="targetPoint" />
          </mxGeometry>
        </mxCell>
        <mxCell id="dvFQtftQSCuBPZ-nTVd1-90" value="" style="endArrow=none;html=1;" edge="1" parent="1">
          <mxGeometry width="50" height="50" relative="1" as="geometry">
            <mxPoint x="-4282" y="160.59000000000015" as="sourcePoint" />
            <mxPoint x="-4272" y="200.59000000000015" as="targetPoint" />
          </mxGeometry>
        </mxCell>
        <mxCell id="dvFQtftQSCuBPZ-nTVd1-91" value="" style="endArrow=none;html=1;" edge="1" parent="1">
          <mxGeometry width="50" height="50" relative="1" as="geometry">
            <mxPoint x="-4282" y="200.59000000000015" as="sourcePoint" />
            <mxPoint x="-4272" y="160.59000000000015" as="targetPoint" />
          </mxGeometry>
        </mxCell>
        <mxCell id="dvFQtftQSCuBPZ-nTVd1-92" value="" style="endArrow=none;html=1;" edge="1" parent="1">
          <mxGeometry width="50" height="50" relative="1" as="geometry">
            <mxPoint x="-4272" y="160.59000000000015" as="sourcePoint" />
            <mxPoint x="-4202" y="160.59000000000015" as="targetPoint" />
          </mxGeometry>
        </mxCell>
        <mxCell id="dvFQtftQSCuBPZ-nTVd1-93" value="" style="endArrow=none;html=1;" edge="1" parent="1">
          <mxGeometry width="50" height="50" relative="1" as="geometry">
            <mxPoint x="-4272" y="200.59000000000015" as="sourcePoint" />
            <mxPoint x="-4202" y="200.59000000000015" as="targetPoint" />
          </mxGeometry>
        </mxCell>
        <mxCell id="dvFQtftQSCuBPZ-nTVd1-94" value="&lt;b&gt;&lt;font face=&quot;Times New Roman&quot;&gt;SEQ&lt;/font&gt;&lt;/b&gt;" style="text;html=1;strokeColor=none;fillColor=none;align=center;verticalAlign=middle;whiteSpace=wrap;rounded=0;" vertex="1" parent="1">
          <mxGeometry x="-4262" y="170.42000000000004" width="40" height="20" as="geometry" />
        </mxCell>
        <mxCell id="dvFQtftQSCuBPZ-nTVd1-95" value="" style="endArrow=none;html=1;" edge="1" parent="1">
          <mxGeometry width="50" height="50" relative="1" as="geometry">
            <mxPoint x="-4202" y="160.59000000000015" as="sourcePoint" />
            <mxPoint x="-4192" y="200.59000000000015" as="targetPoint" />
          </mxGeometry>
        </mxCell>
        <mxCell id="dvFQtftQSCuBPZ-nTVd1-96" value="" style="endArrow=none;html=1;" edge="1" parent="1">
          <mxGeometry width="50" height="50" relative="1" as="geometry">
            <mxPoint x="-4202" y="200.59000000000015" as="sourcePoint" />
            <mxPoint x="-4192" y="160.59000000000015" as="targetPoint" />
          </mxGeometry>
        </mxCell>
        <mxCell id="dvFQtftQSCuBPZ-nTVd1-97" value="" style="endArrow=none;html=1;" edge="1" parent="1">
          <mxGeometry width="50" height="50" relative="1" as="geometry">
            <mxPoint x="-4192" y="160.59000000000015" as="sourcePoint" />
            <mxPoint x="-3882" y="160.99999999999955" as="targetPoint" />
          </mxGeometry>
        </mxCell>
        <mxCell id="dvFQtftQSCuBPZ-nTVd1-98" value="" style="endArrow=none;html=1;" edge="1" parent="1">
          <mxGeometry width="50" height="50" relative="1" as="geometry">
            <mxPoint x="-4192" y="200.59000000000015" as="sourcePoint" />
            <mxPoint x="-3882" y="200.99999999999955" as="targetPoint" />
          </mxGeometry>
        </mxCell>
        <mxCell id="dvFQtftQSCuBPZ-nTVd1-99" value="&lt;b&gt;&lt;font face=&quot;Times New Roman&quot;&gt;NONSEQ&lt;/font&gt;&lt;/b&gt;" style="text;html=1;strokeColor=none;fillColor=none;align=center;verticalAlign=middle;whiteSpace=wrap;rounded=0;" vertex="1" parent="1">
          <mxGeometry x="-4161.83" y="170.42000000000004" width="40" height="20" as="geometry" />
        </mxCell>
        <mxCell id="dvFQtftQSCuBPZ-nTVd1-100" value="" style="endArrow=none;html=1;" edge="1" parent="1">
          <mxGeometry width="50" height="50" relative="1" as="geometry">
            <mxPoint x="-3882" y="161.34000000000015" as="sourcePoint" />
            <mxPoint x="-3872" y="201.34000000000015" as="targetPoint" />
          </mxGeometry>
        </mxCell>
        <mxCell id="dvFQtftQSCuBPZ-nTVd1-101" value="" style="endArrow=none;html=1;" edge="1" parent="1">
          <mxGeometry width="50" height="50" relative="1" as="geometry">
            <mxPoint x="-3882" y="201.34000000000015" as="sourcePoint" />
            <mxPoint x="-3872" y="161.34000000000015" as="targetPoint" />
          </mxGeometry>
        </mxCell>
        <mxCell id="dvFQtftQSCuBPZ-nTVd1-102" value="" style="endArrow=none;html=1;" edge="1" parent="1">
          <mxGeometry width="50" height="50" relative="1" as="geometry">
            <mxPoint x="-3872" y="161.34000000000015" as="sourcePoint" />
            <mxPoint x="-3642" y="161.34000000000015" as="targetPoint" />
          </mxGeometry>
        </mxCell>
        <mxCell id="dvFQtftQSCuBPZ-nTVd1-103" value="" style="endArrow=none;html=1;" edge="1" parent="1">
          <mxGeometry width="50" height="50" relative="1" as="geometry">
            <mxPoint x="-3872" y="201.34000000000015" as="sourcePoint" />
            <mxPoint x="-3642" y="201.34000000000015" as="targetPoint" />
          </mxGeometry>
        </mxCell>
        <mxCell id="dvFQtftQSCuBPZ-nTVd1-104" value="&lt;b&gt;&lt;font face=&quot;Times New Roman&quot;&gt;SEQ&lt;/font&gt;&lt;/b&gt;" style="text;html=1;strokeColor=none;fillColor=none;align=center;verticalAlign=middle;whiteSpace=wrap;rounded=0;" vertex="1" parent="1">
          <mxGeometry x="-3862" y="171.1699999999999" width="40" height="20" as="geometry" />
        </mxCell>
        <mxCell id="dvFQtftQSCuBPZ-nTVd1-105" value="" style="endArrow=none;html=1;" edge="1" parent="1">
          <mxGeometry width="50" height="50" relative="1" as="geometry">
            <mxPoint x="-3642" y="160.7599999999993" as="sourcePoint" />
            <mxPoint x="-3632" y="200.7599999999993" as="targetPoint" />
          </mxGeometry>
        </mxCell>
        <mxCell id="dvFQtftQSCuBPZ-nTVd1-106" value="" style="endArrow=none;html=1;" edge="1" parent="1">
          <mxGeometry width="50" height="50" relative="1" as="geometry">
            <mxPoint x="-3642" y="200.7599999999993" as="sourcePoint" />
            <mxPoint x="-3632" y="160.7599999999993" as="targetPoint" />
          </mxGeometry>
        </mxCell>
        <mxCell id="dvFQtftQSCuBPZ-nTVd1-107" value="" style="endArrow=none;html=1;" edge="1" parent="1">
          <mxGeometry width="50" height="50" relative="1" as="geometry">
            <mxPoint x="-4671.83" y="161.59000000000015" as="sourcePoint" />
            <mxPoint x="-4601.83" y="161.59000000000015" as="targetPoint" />
          </mxGeometry>
        </mxCell>
        <mxCell id="dvFQtftQSCuBPZ-nTVd1-108" value="" style="endArrow=none;html=1;" edge="1" parent="1">
          <mxGeometry width="50" height="50" relative="1" as="geometry">
            <mxPoint x="-4671.83" y="201.59000000000015" as="sourcePoint" />
            <mxPoint x="-4601.83" y="201.59000000000015" as="targetPoint" />
          </mxGeometry>
        </mxCell>
        <mxCell id="dvFQtftQSCuBPZ-nTVd1-109" value="&lt;b&gt;&lt;font face=&quot;Times New Roman&quot;&gt;IDLE&lt;/font&gt;&lt;/b&gt;" style="text;html=1;strokeColor=none;fillColor=none;align=center;verticalAlign=middle;whiteSpace=wrap;rounded=0;" vertex="1" parent="1">
          <mxGeometry x="-4661.83" y="171.42000000000004" width="40" height="20" as="geometry" />
        </mxCell>
        <mxCell id="dvFQtftQSCuBPZ-nTVd1-110" value="" style="endArrow=none;html=1;" edge="1" parent="1">
          <mxGeometry width="50" height="50" relative="1" as="geometry">
            <mxPoint x="-4601.83" y="161.59000000000015" as="sourcePoint" />
            <mxPoint x="-4591.83" y="201.59000000000015" as="targetPoint" />
          </mxGeometry>
        </mxCell>
        <mxCell id="dvFQtftQSCuBPZ-nTVd1-111" value="" style="endArrow=none;html=1;" edge="1" parent="1">
          <mxGeometry width="50" height="50" relative="1" as="geometry">
            <mxPoint x="-4601.83" y="201.59000000000015" as="sourcePoint" />
            <mxPoint x="-4591.83" y="161.59000000000015" as="targetPoint" />
          </mxGeometry>
        </mxCell>
        <mxCell id="dvFQtftQSCuBPZ-nTVd1-112" value="" style="endArrow=none;html=1;" edge="1" parent="1">
          <mxGeometry width="50" height="50" relative="1" as="geometry">
            <mxPoint x="-4682" y="521.1099999999992" as="sourcePoint" />
            <mxPoint x="-4522" y="521.1099999999992" as="targetPoint" />
          </mxGeometry>
        </mxCell>
        <mxCell id="dvFQtftQSCuBPZ-nTVd1-113" value="" style="endArrow=none;html=1;" edge="1" parent="1">
          <mxGeometry width="50" height="50" relative="1" as="geometry">
            <mxPoint x="-4522" y="521.1099999999992" as="sourcePoint" />
            <mxPoint x="-4512" y="481.1100000000001" as="targetPoint" />
          </mxGeometry>
        </mxCell>
        <mxCell id="dvFQtftQSCuBPZ-nTVd1-114" value="" style="endArrow=none;html=1;" edge="1" parent="1">
          <mxGeometry width="50" height="50" relative="1" as="geometry">
            <mxPoint x="-4512" y="481.1100000000001" as="sourcePoint" />
            <mxPoint x="-4202" y="481.1100000000001" as="targetPoint" />
          </mxGeometry>
        </mxCell>
        <mxCell id="dvFQtftQSCuBPZ-nTVd1-115" value="&lt;font face=&quot;Times New Roman&quot;&gt;&lt;b&gt;hreq_a&lt;/b&gt;&lt;/font&gt;" style="text;html=1;strokeColor=none;fillColor=none;align=center;verticalAlign=middle;whiteSpace=wrap;rounded=0;" vertex="1" parent="1">
          <mxGeometry x="-4731.83" y="491.10999999999996" width="40" height="20" as="geometry" />
        </mxCell>
        <mxCell id="dvFQtftQSCuBPZ-nTVd1-116" value="" style="endArrow=none;html=1;" edge="1" parent="1">
          <mxGeometry width="50" height="50" relative="1" as="geometry">
            <mxPoint x="-4682" y="601.1099999999992" as="sourcePoint" />
            <mxPoint x="-4442" y="601.1099999999992" as="targetPoint" />
          </mxGeometry>
        </mxCell>
        <mxCell id="dvFQtftQSCuBPZ-nTVd1-117" value="" style="endArrow=none;html=1;" edge="1" parent="1">
          <mxGeometry width="50" height="50" relative="1" as="geometry">
            <mxPoint x="-4442" y="601.1099999999992" as="sourcePoint" />
            <mxPoint x="-4432" y="561.1099999999992" as="targetPoint" />
          </mxGeometry>
        </mxCell>
        <mxCell id="dvFQtftQSCuBPZ-nTVd1-118" value="" style="endArrow=none;html=1;" edge="1" parent="1">
          <mxGeometry width="50" height="50" relative="1" as="geometry">
            <mxPoint x="-4432" y="561.1099999999992" as="sourcePoint" />
            <mxPoint x="-4122" y="561.6100000000001" as="targetPoint" />
          </mxGeometry>
        </mxCell>
        <mxCell id="dvFQtftQSCuBPZ-nTVd1-119" value="" style="endArrow=classic;startArrow=classic;html=1;" edge="1" parent="1">
          <mxGeometry width="50" height="50" relative="1" as="geometry">
            <mxPoint x="-4522" y="551.1099999999992" as="sourcePoint" />
            <mxPoint x="-4442" y="551.1099999999992" as="targetPoint" />
          </mxGeometry>
        </mxCell>
        <mxCell id="dvFQtftQSCuBPZ-nTVd1-120" value="&lt;b&gt;&lt;font face=&quot;Times New Roman&quot;&gt;decode_cycle&lt;/font&gt;&lt;/b&gt;" style="text;html=1;strokeColor=none;fillColor=none;align=center;verticalAlign=middle;whiteSpace=wrap;rounded=0;" vertex="1" parent="1">
          <mxGeometry x="-4502" y="521.1099999999999" width="40" height="20" as="geometry" />
        </mxCell>
        <mxCell id="dvFQtftQSCuBPZ-nTVd1-121" value="" style="endArrow=classic;startArrow=classic;html=1;" edge="1" parent="1">
          <mxGeometry width="50" height="50" relative="1" as="geometry">
            <mxPoint x="-4442" y="621.1099999999992" as="sourcePoint" />
            <mxPoint x="-4362" y="621.1099999999992" as="targetPoint" />
          </mxGeometry>
        </mxCell>
        <mxCell id="dvFQtftQSCuBPZ-nTVd1-122" value="&lt;b&gt;&lt;font face=&quot;Times New Roman&quot;&gt;arbitrate_cycle&lt;/font&gt;&lt;/b&gt;" style="text;html=1;strokeColor=none;fillColor=none;align=center;verticalAlign=middle;whiteSpace=wrap;rounded=0;" vertex="1" parent="1">
          <mxGeometry x="-4422" y="591.1099999999999" width="40" height="20" as="geometry" />
        </mxCell>
        <mxCell id="dvFQtftQSCuBPZ-nTVd1-123" value="&lt;b&gt;&lt;font face=&quot;Times New Roman&quot;&gt;hsel_a&lt;/font&gt;&lt;/b&gt;" style="text;html=1;strokeColor=none;fillColor=none;align=center;verticalAlign=middle;whiteSpace=wrap;rounded=0;" vertex="1" parent="1">
          <mxGeometry x="-4731.83" y="571.1099999999999" width="40" height="20" as="geometry" />
        </mxCell>
        <mxCell id="dvFQtftQSCuBPZ-nTVd1-124" value="&lt;b&gt;&lt;font face=&quot;Times New Roman&quot;&gt;hreadyout_a&lt;/font&gt;&lt;/b&gt;" style="text;html=1;strokeColor=none;fillColor=none;align=center;verticalAlign=middle;whiteSpace=wrap;rounded=0;" vertex="1" parent="1">
          <mxGeometry x="-4732" y="651.1099999999999" width="40" height="20" as="geometry" />
        </mxCell>
        <mxCell id="dvFQtftQSCuBPZ-nTVd1-125" value="" style="endArrow=none;html=1;" edge="1" parent="1">
          <mxGeometry width="50" height="50" relative="1" as="geometry">
            <mxPoint x="-4682" y="641.1099999999992" as="sourcePoint" />
            <mxPoint x="-4362" y="641.1099999999992" as="targetPoint" />
          </mxGeometry>
        </mxCell>
        <mxCell id="dvFQtftQSCuBPZ-nTVd1-126" value="" style="endArrow=none;html=1;" edge="1" parent="1">
          <mxGeometry width="50" height="50" relative="1" as="geometry">
            <mxPoint x="-4362" y="641.1099999999992" as="sourcePoint" />
            <mxPoint x="-4352" y="681.1099999999992" as="targetPoint" />
          </mxGeometry>
        </mxCell>
        <mxCell id="dvFQtftQSCuBPZ-nTVd1-127" value="" style="endArrow=none;html=1;" edge="1" parent="1">
          <mxGeometry width="50" height="50" relative="1" as="geometry">
            <mxPoint x="-4352" y="681.1099999999992" as="sourcePoint" />
            <mxPoint x="-4282" y="681.1099999999992" as="targetPoint" />
          </mxGeometry>
        </mxCell>
        <mxCell id="dvFQtftQSCuBPZ-nTVd1-128" value="" style="endArrow=none;html=1;" edge="1" parent="1">
          <mxGeometry width="50" height="50" relative="1" as="geometry">
            <mxPoint x="-4282" y="681.1099999999992" as="sourcePoint" />
            <mxPoint x="-4272" y="641.1099999999992" as="targetPoint" />
          </mxGeometry>
        </mxCell>
        <mxCell id="dvFQtftQSCuBPZ-nTVd1-129" value="" style="endArrow=none;html=1;" edge="1" parent="1">
          <mxGeometry width="50" height="50" relative="1" as="geometry">
            <mxPoint x="-4272" y="641.1099999999992" as="sourcePoint" />
            <mxPoint x="-4112" y="641.0500000000002" as="targetPoint" />
          </mxGeometry>
        </mxCell>
        <mxCell id="dvFQtftQSCuBPZ-nTVd1-130" value="&lt;b&gt;&lt;font face=&quot;Times New Roman&quot;&gt;hready&lt;/font&gt;&lt;/b&gt;" style="text;html=1;strokeColor=none;fillColor=none;align=center;verticalAlign=middle;whiteSpace=wrap;rounded=0;" vertex="1" parent="1">
          <mxGeometry x="-4731.83" y="411.53000000000003" width="40" height="20" as="geometry" />
        </mxCell>
        <mxCell id="dvFQtftQSCuBPZ-nTVd1-131" value="" style="endArrow=none;html=1;" edge="1" parent="1">
          <mxGeometry width="50" height="50" relative="1" as="geometry">
            <mxPoint x="-4681.83" y="441.53000000000065" as="sourcePoint" />
            <mxPoint x="-4441.83" y="441.1100000000001" as="targetPoint" />
          </mxGeometry>
        </mxCell>
        <mxCell id="dvFQtftQSCuBPZ-nTVd1-132" value="" style="endArrow=none;html=1;" edge="1" parent="1">
          <mxGeometry width="50" height="50" relative="1" as="geometry">
            <mxPoint x="-4441.83" y="441.1100000000001" as="sourcePoint" />
            <mxPoint x="-4431.83" y="401.1100000000001" as="targetPoint" />
          </mxGeometry>
        </mxCell>
        <mxCell id="dvFQtftQSCuBPZ-nTVd1-133" value="" style="endArrow=none;html=1;" edge="1" parent="1">
          <mxGeometry width="50" height="50" relative="1" as="geometry">
            <mxPoint x="-4431.83" y="401.1100000000001" as="sourcePoint" />
            <mxPoint x="-4361.83" y="401.1100000000001" as="targetPoint" />
          </mxGeometry>
        </mxCell>
        <mxCell id="dvFQtftQSCuBPZ-nTVd1-134" value="" style="endArrow=none;html=1;" edge="1" parent="1">
          <mxGeometry width="50" height="50" relative="1" as="geometry">
            <mxPoint x="-4361.83" y="401.1100000000001" as="sourcePoint" />
            <mxPoint x="-4351.83" y="441.1100000000001" as="targetPoint" />
          </mxGeometry>
        </mxCell>
        <mxCell id="dvFQtftQSCuBPZ-nTVd1-135" value="" style="endArrow=none;html=1;" edge="1" parent="1">
          <mxGeometry width="50" height="50" relative="1" as="geometry">
            <mxPoint x="-4351.83" y="441.1100000000001" as="sourcePoint" />
            <mxPoint x="-4281.83" y="441.1100000000001" as="targetPoint" />
          </mxGeometry>
        </mxCell>
        <mxCell id="dvFQtftQSCuBPZ-nTVd1-136" value="" style="endArrow=none;html=1;" edge="1" parent="1">
          <mxGeometry width="50" height="50" relative="1" as="geometry">
            <mxPoint x="-4281.83" y="441.1100000000001" as="sourcePoint" />
            <mxPoint x="-4271.83" y="401.1100000000001" as="targetPoint" />
          </mxGeometry>
        </mxCell>
        <mxCell id="dvFQtftQSCuBPZ-nTVd1-137" value="" style="endArrow=none;html=1;" edge="1" parent="1">
          <mxGeometry width="50" height="50" relative="1" as="geometry">
            <mxPoint x="-4271.83" y="401.1100000000001" as="sourcePoint" />
            <mxPoint x="-4201.83" y="401.1100000000001" as="targetPoint" />
          </mxGeometry>
        </mxCell>
        <mxCell id="dvFQtftQSCuBPZ-nTVd1-138" value="" style="endArrow=none;html=1;" edge="1" parent="1">
          <mxGeometry width="50" height="50" relative="1" as="geometry">
            <mxPoint x="-4121.83" y="442.94000000000005" as="sourcePoint" />
            <mxPoint x="-4111.83" y="402.94000000000005" as="targetPoint" />
          </mxGeometry>
        </mxCell>
        <mxCell id="dvFQtftQSCuBPZ-nTVd1-139" value="" style="endArrow=none;html=1;" edge="1" parent="1">
          <mxGeometry width="50" height="50" relative="1" as="geometry">
            <mxPoint x="-4201.83" y="401.1100000000001" as="sourcePoint" />
            <mxPoint x="-4191.83" y="441.1100000000001" as="targetPoint" />
          </mxGeometry>
        </mxCell>
        <mxCell id="dvFQtftQSCuBPZ-nTVd1-140" value="" style="endArrow=none;html=1;" edge="1" parent="1">
          <mxGeometry width="50" height="50" relative="1" as="geometry">
            <mxPoint x="-4191.83" y="441.53000000000065" as="sourcePoint" />
            <mxPoint x="-4122" y="441.94000000000005" as="targetPoint" />
          </mxGeometry>
        </mxCell>
        <mxCell id="dvFQtftQSCuBPZ-nTVd1-141" value="" style="endArrow=none;html=1;" edge="1" parent="1">
          <mxGeometry width="50" height="50" relative="1" as="geometry">
            <mxPoint x="-4111.83" y="401.94000000000005" as="sourcePoint" />
            <mxPoint x="-4042" y="402" as="targetPoint" />
          </mxGeometry>
        </mxCell>
        <mxCell id="dvFQtftQSCuBPZ-nTVd1-142" value="" style="endArrow=none;html=1;fillColor=#99FFFF;" edge="1" parent="1">
          <mxGeometry width="50" height="50" relative="1" as="geometry">
            <mxPoint x="-4032.17" y="441.94000000000005" as="sourcePoint" />
            <mxPoint x="-4042.17" y="401.94000000000005" as="targetPoint" />
          </mxGeometry>
        </mxCell>
        <mxCell id="dvFQtftQSCuBPZ-nTVd1-143" value="" style="endArrow=none;html=1;fillColor=#99FFFF;" edge="1" parent="1">
          <mxGeometry width="50" height="50" relative="1" as="geometry">
            <mxPoint x="-4032" y="440.99999999999955" as="sourcePoint" />
            <mxPoint x="-3962" y="440.99999999999955" as="targetPoint" />
          </mxGeometry>
        </mxCell>
        <mxCell id="dvFQtftQSCuBPZ-nTVd1-144" value="" style="endArrow=classic;html=1;fillColor=#dae8fc;strokeColor=#6c8ebf;" edge="1" parent="1">
          <mxGeometry width="50" height="50" relative="1" as="geometry">
            <mxPoint x="-4432" y="641.1099999999992" as="sourcePoint" />
            <mxPoint x="-4432" y="401.1100000000001" as="targetPoint" />
          </mxGeometry>
        </mxCell>
        <mxCell id="dvFQtftQSCuBPZ-nTVd1-145" value="" style="endArrow=classic;html=1;fillColor=#dae8fc;strokeColor=#6c8ebf;" edge="1" parent="1">
          <mxGeometry width="50" height="50" relative="1" as="geometry">
            <mxPoint x="-4352" y="681.1099999999992" as="sourcePoint" />
            <mxPoint x="-4352" y="441.1100000000001" as="targetPoint" />
          </mxGeometry>
        </mxCell>
        <mxCell id="dvFQtftQSCuBPZ-nTVd1-146" value="" style="endArrow=classic;html=1;fillColor=#dae8fc;strokeColor=#6c8ebf;" edge="1" parent="1">
          <mxGeometry width="50" height="50" relative="1" as="geometry">
            <mxPoint x="-4272" y="641.1099999999992" as="sourcePoint" />
            <mxPoint x="-4272" y="401.1100000000001" as="targetPoint" />
          </mxGeometry>
        </mxCell>
        <mxCell id="dvFQtftQSCuBPZ-nTVd1-147" value="" style="endArrow=none;html=1;" edge="1" parent="1">
          <mxGeometry width="50" height="50" relative="1" as="geometry">
            <mxPoint x="-4362" y="840.4399999999991" as="sourcePoint" />
            <mxPoint x="-4202" y="840.4399999999991" as="targetPoint" />
          </mxGeometry>
        </mxCell>
        <mxCell id="dvFQtftQSCuBPZ-nTVd1-148" value="" style="endArrow=none;html=1;" edge="1" parent="1">
          <mxGeometry width="50" height="50" relative="1" as="geometry">
            <mxPoint x="-4202" y="840.4399999999991" as="sourcePoint" />
            <mxPoint x="-4192" y="800.4399999999991" as="targetPoint" />
          </mxGeometry>
        </mxCell>
        <mxCell id="dvFQtftQSCuBPZ-nTVd1-149" value="" style="endArrow=none;html=1;" edge="1" parent="1">
          <mxGeometry width="50" height="50" relative="1" as="geometry">
            <mxPoint x="-4192" y="800.4399999999991" as="sourcePoint" />
            <mxPoint x="-4042" y="800" as="targetPoint" />
          </mxGeometry>
        </mxCell>
        <mxCell id="dvFQtftQSCuBPZ-nTVd1-150" value="&lt;font face=&quot;Times New Roman&quot;&gt;&lt;b&gt;hreq_b&lt;/b&gt;&lt;/font&gt;" style="text;html=1;strokeColor=none;fillColor=none;align=center;verticalAlign=middle;whiteSpace=wrap;rounded=0;" vertex="1" parent="1">
          <mxGeometry x="-4731.66" y="811.6099999999999" width="40" height="20" as="geometry" />
        </mxCell>
        <mxCell id="dvFQtftQSCuBPZ-nTVd1-151" value="" style="endArrow=none;html=1;" edge="1" parent="1">
          <mxGeometry width="50" height="50" relative="1" as="geometry">
            <mxPoint x="-4362" y="920.4399999999991" as="sourcePoint" />
            <mxPoint x="-4122" y="920.4399999999991" as="targetPoint" />
          </mxGeometry>
        </mxCell>
        <mxCell id="dvFQtftQSCuBPZ-nTVd1-152" value="" style="endArrow=none;html=1;" edge="1" parent="1">
          <mxGeometry width="50" height="50" relative="1" as="geometry">
            <mxPoint x="-4122" y="920.4399999999991" as="sourcePoint" />
            <mxPoint x="-4112" y="880.4399999999991" as="targetPoint" />
          </mxGeometry>
        </mxCell>
        <mxCell id="dvFQtftQSCuBPZ-nTVd1-153" value="" style="endArrow=none;html=1;" edge="1" parent="1">
          <mxGeometry width="50" height="50" relative="1" as="geometry">
            <mxPoint x="-4112" y="880.4399999999991" as="sourcePoint" />
            <mxPoint x="-3962" y="880" as="targetPoint" />
          </mxGeometry>
        </mxCell>
        <mxCell id="dvFQtftQSCuBPZ-nTVd1-154" value="" style="endArrow=classic;startArrow=classic;html=1;" edge="1" parent="1">
          <mxGeometry width="50" height="50" relative="1" as="geometry">
            <mxPoint x="-4202" y="870.4399999999991" as="sourcePoint" />
            <mxPoint x="-4122" y="870.4399999999991" as="targetPoint" />
          </mxGeometry>
        </mxCell>
        <mxCell id="dvFQtftQSCuBPZ-nTVd1-155" value="&lt;b&gt;&lt;font face=&quot;Times New Roman&quot;&gt;decode_cycle&lt;/font&gt;&lt;/b&gt;" style="text;html=1;strokeColor=none;fillColor=none;align=center;verticalAlign=middle;whiteSpace=wrap;rounded=0;" vertex="1" parent="1">
          <mxGeometry x="-4182" y="840.4399999999998" width="40" height="20" as="geometry" />
        </mxCell>
        <mxCell id="dvFQtftQSCuBPZ-nTVd1-156" value="" style="endArrow=classic;startArrow=classic;html=1;" edge="1" parent="1">
          <mxGeometry width="50" height="50" relative="1" as="geometry">
            <mxPoint x="-4122" y="940.4399999999991" as="sourcePoint" />
            <mxPoint x="-4042" y="940.4399999999991" as="targetPoint" />
          </mxGeometry>
        </mxCell>
        <mxCell id="dvFQtftQSCuBPZ-nTVd1-157" value="&lt;b&gt;&lt;font face=&quot;Times New Roman&quot;&gt;arbitrate_cycle&lt;/font&gt;&lt;/b&gt;" style="text;html=1;strokeColor=none;fillColor=none;align=center;verticalAlign=middle;whiteSpace=wrap;rounded=0;" vertex="1" parent="1">
          <mxGeometry x="-4102" y="910.4399999999998" width="40" height="20" as="geometry" />
        </mxCell>
        <mxCell id="dvFQtftQSCuBPZ-nTVd1-158" value="&lt;b&gt;&lt;font face=&quot;Times New Roman&quot;&gt;hsel_b&lt;/font&gt;&lt;/b&gt;" style="text;html=1;strokeColor=none;fillColor=none;align=center;verticalAlign=middle;whiteSpace=wrap;rounded=0;" vertex="1" parent="1">
          <mxGeometry x="-4731.66" y="891.6099999999999" width="40" height="20" as="geometry" />
        </mxCell>
        <mxCell id="dvFQtftQSCuBPZ-nTVd1-159" value="&lt;b&gt;&lt;font face=&quot;Times New Roman&quot;&gt;hreadyout_b&lt;/font&gt;&lt;/b&gt;" style="text;html=1;strokeColor=none;fillColor=none;align=center;verticalAlign=middle;whiteSpace=wrap;rounded=0;" vertex="1" parent="1">
          <mxGeometry x="-4731.83" y="971.6099999999999" width="40" height="20" as="geometry" />
        </mxCell>
        <mxCell id="dvFQtftQSCuBPZ-nTVd1-160" value="" style="endArrow=none;html=1;" edge="1" parent="1">
          <mxGeometry width="50" height="50" relative="1" as="geometry">
            <mxPoint x="-4362" y="960.4399999999991" as="sourcePoint" />
            <mxPoint x="-3882" y="960" as="targetPoint" />
          </mxGeometry>
        </mxCell>
        <mxCell id="dvFQtftQSCuBPZ-nTVd1-161" value="" style="endArrow=classic;html=1;fillColor=#dae8fc;strokeColor=#6c8ebf;" edge="1" parent="1">
          <mxGeometry width="50" height="50" relative="1" as="geometry">
            <mxPoint x="-4112" y="956.9399999999996" as="sourcePoint" />
            <mxPoint x="-4112" y="401.94000000000005" as="targetPoint" />
          </mxGeometry>
        </mxCell>
        <mxCell id="dvFQtftQSCuBPZ-nTVd1-162" value="" style="endArrow=classic;html=1;fillColor=#dae8fc;strokeColor=#6c8ebf;exitX=0;exitY=0;exitDx=0;exitDy=0;" edge="1" parent="1" source="dvFQtftQSCuBPZ-nTVd1-260">
          <mxGeometry width="50" height="50" relative="1" as="geometry">
            <mxPoint x="-4027.26" y="1002.5" as="sourcePoint" />
            <mxPoint x="-4026.9300000000003" y="442.5" as="targetPoint" />
          </mxGeometry>
        </mxCell>
        <mxCell id="dvFQtftQSCuBPZ-nTVd1-163" value="" style="endArrow=none;html=1;" edge="1" parent="1">
          <mxGeometry width="50" height="50" relative="1" as="geometry">
            <mxPoint x="-3722" y="120" as="sourcePoint" />
            <mxPoint x="-3722" y="80" as="targetPoint" />
          </mxGeometry>
        </mxCell>
        <mxCell id="dvFQtftQSCuBPZ-nTVd1-164" value="" style="endArrow=none;html=1;" edge="1" parent="1">
          <mxGeometry width="50" height="50" relative="1" as="geometry">
            <mxPoint x="-3722" y="80" as="sourcePoint" />
            <mxPoint x="-3682" y="80" as="targetPoint" />
          </mxGeometry>
        </mxCell>
        <mxCell id="dvFQtftQSCuBPZ-nTVd1-165" value="" style="endArrow=none;html=1;" edge="1" parent="1">
          <mxGeometry width="50" height="50" relative="1" as="geometry">
            <mxPoint x="-3682" y="80" as="sourcePoint" />
            <mxPoint x="-3682" y="120" as="targetPoint" />
          </mxGeometry>
        </mxCell>
        <mxCell id="dvFQtftQSCuBPZ-nTVd1-166" value="" style="endArrow=none;html=1;" edge="1" parent="1">
          <mxGeometry width="50" height="50" relative="1" as="geometry">
            <mxPoint x="-3682" y="120" as="sourcePoint" />
            <mxPoint x="-3642" y="120" as="targetPoint" />
          </mxGeometry>
        </mxCell>
        <mxCell id="dvFQtftQSCuBPZ-nTVd1-167" value="" style="endArrow=none;html=1;" edge="1" parent="1">
          <mxGeometry width="50" height="50" relative="1" as="geometry">
            <mxPoint x="-3642.4800000000005" y="120" as="sourcePoint" />
            <mxPoint x="-3642.4800000000005" y="80" as="targetPoint" />
          </mxGeometry>
        </mxCell>
        <mxCell id="dvFQtftQSCuBPZ-nTVd1-168" value="" style="endArrow=none;html=1;" edge="1" parent="1">
          <mxGeometry width="50" height="50" relative="1" as="geometry">
            <mxPoint x="-3642.4800000000005" y="80" as="sourcePoint" />
            <mxPoint x="-3602.4800000000005" y="80" as="targetPoint" />
            <Array as="points">
              <mxPoint x="-3612.48" y="79.99999999999997" />
            </Array>
          </mxGeometry>
        </mxCell>
        <mxCell id="dvFQtftQSCuBPZ-nTVd1-169" value="" style="endArrow=none;html=1;" edge="1" parent="1">
          <mxGeometry width="50" height="50" relative="1" as="geometry">
            <mxPoint x="-3602.4800000000005" y="80" as="sourcePoint" />
            <mxPoint x="-3602.4800000000005" y="120" as="targetPoint" />
          </mxGeometry>
        </mxCell>
        <mxCell id="dvFQtftQSCuBPZ-nTVd1-170" value="" style="endArrow=none;html=1;" edge="1" parent="1">
          <mxGeometry width="50" height="50" relative="1" as="geometry">
            <mxPoint x="-3602" y="120" as="sourcePoint" />
            <mxPoint x="-3562" y="120" as="targetPoint" />
          </mxGeometry>
        </mxCell>
        <mxCell id="dvFQtftQSCuBPZ-nTVd1-171" value="" style="endArrow=none;html=1;" edge="1" parent="1">
          <mxGeometry width="50" height="50" relative="1" as="geometry">
            <mxPoint x="-3762" y="120" as="sourcePoint" />
            <mxPoint x="-3722" y="120" as="targetPoint" />
          </mxGeometry>
        </mxCell>
        <mxCell id="dvFQtftQSCuBPZ-nTVd1-172" value="C3" style="text;html=1;strokeColor=none;fillColor=none;align=center;verticalAlign=middle;whiteSpace=wrap;rounded=0;" vertex="1" parent="1">
          <mxGeometry x="-3861.83" y="330.0000000000002" width="40" height="20" as="geometry" />
        </mxCell>
        <mxCell id="dvFQtftQSCuBPZ-nTVd1-173" value="&lt;b&gt;&lt;font face=&quot;Times New Roman&quot;&gt;hresp_a&lt;/font&gt;&lt;/b&gt;" style="text;html=1;strokeColor=none;fillColor=none;align=center;verticalAlign=middle;whiteSpace=wrap;rounded=0;" vertex="1" parent="1">
          <mxGeometry x="-4731.66" y="731.1099999999999" width="40" height="20" as="geometry" />
        </mxCell>
        <mxCell id="dvFQtftQSCuBPZ-nTVd1-174" value="" style="endArrow=none;html=1;fillColor=#99FFFF;" edge="1" parent="1">
          <mxGeometry width="50" height="50" relative="1" as="geometry">
            <mxPoint x="-4682" y="761.1099999999992" as="sourcePoint" />
            <mxPoint x="-4112" y="761.0500000000002" as="targetPoint" />
          </mxGeometry>
        </mxCell>
        <mxCell id="dvFQtftQSCuBPZ-nTVd1-175" value="" style="endArrow=classic;startArrow=classic;html=1;fillColor=#99FFFF;" edge="1" parent="1">
          <mxGeometry width="50" height="50" relative="1" as="geometry">
            <mxPoint x="-4442" y="721.1099999999992" as="sourcePoint" />
            <mxPoint x="-4202" y="721.1099999999992" as="targetPoint" />
          </mxGeometry>
        </mxCell>
        <mxCell id="dvFQtftQSCuBPZ-nTVd1-176" value="&lt;div&gt;&lt;b&gt;&lt;font face=&quot;Times New Roman&quot;&gt;Slave can see requests in this period&lt;/font&gt;&lt;/b&gt;&lt;/div&gt;" style="text;html=1;strokeColor=none;fillColor=none;align=center;verticalAlign=middle;whiteSpace=wrap;rounded=0;" vertex="1" parent="1">
          <mxGeometry x="-4422" y="691.1099999999999" width="190" height="20" as="geometry" />
        </mxCell>
        <mxCell id="dvFQtftQSCuBPZ-nTVd1-177" value="" style="endArrow=classic;startArrow=classic;html=1;fillColor=#99FFFF;" edge="1" parent="1">
          <mxGeometry width="50" height="50" relative="1" as="geometry">
            <mxPoint x="-4122.51" y="770.4399999999991" as="sourcePoint" />
            <mxPoint x="-3962.51" y="770.4399999999991" as="targetPoint" />
          </mxGeometry>
        </mxCell>
        <mxCell id="dvFQtftQSCuBPZ-nTVd1-178" value="&lt;div&gt;&lt;b&gt;&lt;font face=&quot;Times New Roman&quot;&gt;Slave can see requests in this period&lt;/font&gt;&lt;/b&gt;&lt;/div&gt;" style="text;html=1;strokeColor=none;fillColor=none;align=center;verticalAlign=middle;whiteSpace=wrap;rounded=0;" vertex="1" parent="1">
          <mxGeometry x="-4132.17" y="740.4399999999998" width="190" height="20" as="geometry" />
        </mxCell>
        <mxCell id="dvFQtftQSCuBPZ-nTVd1-179" value="" style="endArrow=none;html=1;fillColor=#99FFFF;" edge="1" parent="1">
          <mxGeometry width="50" height="50" relative="1" as="geometry">
            <mxPoint x="-3961.83" y="440.3499999999999" as="sourcePoint" />
            <mxPoint x="-3951.83" y="400.3499999999999" as="targetPoint" />
          </mxGeometry>
        </mxCell>
        <mxCell id="dvFQtftQSCuBPZ-nTVd1-180" value="" style="endArrow=none;html=1;fillColor=#99FFFF;" edge="1" parent="1">
          <mxGeometry width="50" height="50" relative="1" as="geometry">
            <mxPoint x="-3951.83" y="400.3499999999999" as="sourcePoint" />
            <mxPoint x="-3802" y="400" as="targetPoint" />
          </mxGeometry>
        </mxCell>
        <mxCell id="dvFQtftQSCuBPZ-nTVd1-181" value="" style="endArrow=none;html=1;" edge="1" parent="1">
          <mxGeometry width="50" height="50" relative="1" as="geometry">
            <mxPoint x="-3632" y="160.59000000000015" as="sourcePoint" />
            <mxPoint x="-3562" y="160.59000000000015" as="targetPoint" />
          </mxGeometry>
        </mxCell>
        <mxCell id="dvFQtftQSCuBPZ-nTVd1-182" value="" style="endArrow=none;html=1;" edge="1" parent="1">
          <mxGeometry width="50" height="50" relative="1" as="geometry">
            <mxPoint x="-3632" y="200.59000000000015" as="sourcePoint" />
            <mxPoint x="-3562" y="200.59000000000015" as="targetPoint" />
          </mxGeometry>
        </mxCell>
        <mxCell id="dvFQtftQSCuBPZ-nTVd1-183" value="&lt;b&gt;&lt;font face=&quot;Times New Roman&quot;&gt;IDLE&lt;/font&gt;&lt;/b&gt;" style="text;html=1;strokeColor=none;fillColor=none;align=center;verticalAlign=middle;whiteSpace=wrap;rounded=0;" vertex="1" parent="1">
          <mxGeometry x="-3622" y="171.4199999999999" width="40" height="20" as="geometry" />
        </mxCell>
        <mxCell id="dvFQtftQSCuBPZ-nTVd1-184" value="" style="endArrow=none;html=1;fillColor=#99FFFF;" edge="1" parent="1">
          <mxGeometry width="50" height="50" relative="1" as="geometry">
            <mxPoint x="-4192" y="521.1099999999992" as="sourcePoint" />
            <mxPoint x="-4202" y="481.1100000000001" as="targetPoint" />
          </mxGeometry>
        </mxCell>
        <mxCell id="dvFQtftQSCuBPZ-nTVd1-185" value="" style="endArrow=none;html=1;fillColor=#99FFFF;" edge="1" parent="1">
          <mxGeometry width="50" height="50" relative="1" as="geometry">
            <mxPoint x="-4111.83" y="601.1099999999992" as="sourcePoint" />
            <mxPoint x="-4121.83" y="561.1099999999992" as="targetPoint" />
          </mxGeometry>
        </mxCell>
        <mxCell id="dvFQtftQSCuBPZ-nTVd1-186" value="" style="endArrow=classic;startArrow=classic;html=1;fillColor=#99FFFF;" edge="1" parent="1">
          <mxGeometry width="50" height="50" relative="1" as="geometry">
            <mxPoint x="-4752" y="1360" as="sourcePoint" />
            <mxPoint x="-4752" y="81.94000000000005" as="targetPoint" />
          </mxGeometry>
        </mxCell>
        <mxCell id="dvFQtftQSCuBPZ-nTVd1-187" value="&lt;h1&gt;&lt;font face=&quot;Times New Roman&quot;&gt;NFF FSM:&lt;br&gt;&lt;/font&gt;&lt;/h1&gt;&lt;p&gt;&lt;font face=&quot;Times New Roman&quot;&gt;* &lt;b&gt;This is a mealy FSM&lt;/b&gt;&lt;/font&gt;&lt;/p&gt;" style="text;html=1;strokeColor=none;fillColor=none;spacing=5;spacingTop=-20;whiteSpace=wrap;overflow=hidden;rounded=0;" vertex="1" parent="1">
          <mxGeometry x="-4930" y="79.98" width="162" height="69.5" as="geometry" />
        </mxCell>
        <mxCell id="dvFQtftQSCuBPZ-nTVd1-188" value="" style="endArrow=classic;startArrow=classic;html=1;fillColor=#99FFFF;" edge="1" parent="1">
          <mxGeometry width="50" height="50" relative="1" as="geometry">
            <mxPoint x="-3362" y="1319.6399999999994" as="sourcePoint" />
            <mxPoint x="-3362" y="79.88999999999942" as="targetPoint" />
          </mxGeometry>
        </mxCell>
        <mxCell id="dvFQtftQSCuBPZ-nTVd1-189" value="&lt;font face=&quot;Times New Roman&quot;&gt;&lt;b&gt;NFF_IDLE&lt;/b&gt;&lt;/font&gt;" style="ellipse;whiteSpace=wrap;html=1;" vertex="1" parent="1">
          <mxGeometry x="-3242" y="522.08" width="120" height="80" as="geometry" />
        </mxCell>
        <mxCell id="dvFQtftQSCuBPZ-nTVd1-190" value="&lt;font face=&quot;Times New Roman&quot;&gt;&lt;b&gt;NFF_ERROR&lt;/b&gt;&lt;/font&gt;" style="ellipse;whiteSpace=wrap;html=1;" vertex="1" parent="1">
          <mxGeometry x="-3005" y="280.75000000000006" width="120" height="80" as="geometry" />
        </mxCell>
        <mxCell id="dvFQtftQSCuBPZ-nTVd1-191" value="&lt;font face=&quot;Times New Roman&quot;&gt;&lt;b&gt;NFF_SLVSEL&lt;/b&gt;&lt;/font&gt;" style="ellipse;whiteSpace=wrap;html=1;" vertex="1" parent="1">
          <mxGeometry x="-2762" y="523.08" width="120" height="80" as="geometry" />
        </mxCell>
        <mxCell id="dvFQtftQSCuBPZ-nTVd1-192" value="&lt;b&gt;&lt;font face=&quot;Times New Roman&quot;&gt;((SEQ || NONSEQ) &amp;amp;&amp;amp; !dec_error) || hslv_wait_detect&lt;/font&gt;&lt;/b&gt;" style="text;html=1;strokeColor=none;fillColor=none;align=center;verticalAlign=middle;whiteSpace=wrap;rounded=0;" vertex="1" parent="1">
          <mxGeometry x="-2592" y="540.7500000000001" width="290" height="20" as="geometry" />
        </mxCell>
        <mxCell id="dvFQtftQSCuBPZ-nTVd1-193" value="&lt;b&gt;&lt;font face=&quot;Times New Roman&quot;&gt;default_slv_sel&lt;/font&gt;&lt;/b&gt;" style="text;html=1;strokeColor=none;fillColor=none;align=center;verticalAlign=middle;whiteSpace=wrap;rounded=0;" vertex="1" parent="1">
          <mxGeometry x="-3212" y="382.5800000000002" width="40" height="20" as="geometry" />
        </mxCell>
        <mxCell id="dvFQtftQSCuBPZ-nTVd1-194" value="&lt;font face=&quot;Times New Roman&quot;&gt;&lt;b&gt;NSEQ || SEQ&amp;amp;&amp;amp;!dec_error&lt;/b&gt;&lt;/font&gt;" style="text;html=1;strokeColor=none;fillColor=none;align=center;verticalAlign=middle;whiteSpace=wrap;rounded=0;" vertex="1" parent="1">
          <mxGeometry x="-2777" y="354.6800000000001" width="150" height="20" as="geometry" />
        </mxCell>
        <mxCell id="dvFQtftQSCuBPZ-nTVd1-195" value="&lt;b&gt;&lt;font face=&quot;Times New Roman&quot;&gt;hreq&lt;/font&gt;&lt;/b&gt;" style="text;html=1;strokeColor=none;fillColor=none;align=center;verticalAlign=middle;whiteSpace=wrap;rounded=0;" vertex="1" parent="1">
          <mxGeometry x="-2472" y="566.33" width="40" height="20" as="geometry" />
        </mxCell>
        <mxCell id="dvFQtftQSCuBPZ-nTVd1-196" value="&lt;font face=&quot;Times New Roman&quot;&gt;&lt;b&gt;IDLE &amp;amp;&amp;amp; !hslv_wait_detect&lt;/b&gt;&lt;/font&gt;" style="text;html=1;strokeColor=none;fillColor=none;align=center;verticalAlign=middle;whiteSpace=wrap;rounded=0;" vertex="1" parent="1">
          <mxGeometry x="-3002" y="730.7500000000001" width="160" height="20" as="geometry" />
        </mxCell>
        <mxCell id="dvFQtftQSCuBPZ-nTVd1-197" value="&lt;b&gt;&lt;font face=&quot;Times New Roman&quot;&gt;dec_error &amp;amp;&amp;amp; !hslv_wait_detect&lt;/font&gt;&lt;/b&gt;" style="text;html=1;strokeColor=none;fillColor=none;align=center;verticalAlign=middle;whiteSpace=wrap;rounded=0;rotation=0;" vertex="1" parent="1">
          <mxGeometry x="-2927" y="426.5800000000001" width="60" height="20" as="geometry" />
        </mxCell>
        <mxCell id="dvFQtftQSCuBPZ-nTVd1-198" value="&lt;b&gt;&lt;font face=&quot;Times New Roman&quot;&gt;NONSEQ &amp;amp;&amp;amp; dec_error&lt;/font&gt;&lt;/b&gt;" style="text;html=1;strokeColor=none;fillColor=none;align=center;verticalAlign=middle;whiteSpace=wrap;rounded=0;" vertex="1" parent="1">
          <mxGeometry x="-3262" y="360.75000000000006" width="140" height="20" as="geometry" />
        </mxCell>
        <mxCell id="dvFQtftQSCuBPZ-nTVd1-199" value="" style="curved=1;endArrow=classic;html=1;fillColor=#99FFFF;exitX=0.5;exitY=0;exitDx=0;exitDy=0;entryX=0;entryY=0.5;entryDx=0;entryDy=0;" edge="1" parent="1" source="dvFQtftQSCuBPZ-nTVd1-189" target="dvFQtftQSCuBPZ-nTVd1-190">
          <mxGeometry width="50" height="50" relative="1" as="geometry">
            <mxPoint x="-3142" y="471.5800000000001" as="sourcePoint" />
            <mxPoint x="-3092" y="421.5800000000001" as="targetPoint" />
            <Array as="points">
              <mxPoint x="-3172" y="471.5800000000001" />
              <mxPoint x="-3122" y="391.5800000000001" />
              <mxPoint x="-3062" y="341.5800000000001" />
            </Array>
          </mxGeometry>
        </mxCell>
        <mxCell id="dvFQtftQSCuBPZ-nTVd1-200" value="" style="endArrow=none;html=1;fillColor=#99FFFF;" edge="1" parent="1">
          <mxGeometry width="50" height="50" relative="1" as="geometry">
            <mxPoint x="-3252" y="381.5799999999995" as="sourcePoint" />
            <mxPoint x="-3142" y="381.5799999999995" as="targetPoint" />
          </mxGeometry>
        </mxCell>
        <mxCell id="dvFQtftQSCuBPZ-nTVd1-201" value="" style="curved=1;endArrow=classic;html=1;fillColor=#99FFFF;exitX=1;exitY=0.5;exitDx=0;exitDy=0;entryX=0.5;entryY=0;entryDx=0;entryDy=0;" edge="1" parent="1" source="dvFQtftQSCuBPZ-nTVd1-190" target="dvFQtftQSCuBPZ-nTVd1-191">
          <mxGeometry width="50" height="50" relative="1" as="geometry">
            <mxPoint x="-2802" y="441.5800000000001" as="sourcePoint" />
            <mxPoint x="-2752" y="391.5800000000001" as="targetPoint" />
            <Array as="points">
              <mxPoint x="-2822" y="331.5800000000001" />
              <mxPoint x="-2742" y="411.5800000000001" />
            </Array>
          </mxGeometry>
        </mxCell>
        <mxCell id="dvFQtftQSCuBPZ-nTVd1-202" value="" style="curved=1;endArrow=classic;html=1;fillColor=#99FFFF;exitX=0.562;exitY=0.984;exitDx=0;exitDy=0;exitPerimeter=0;entryX=0.5;entryY=1;entryDx=0;entryDy=0;" edge="1" parent="1" source="dvFQtftQSCuBPZ-nTVd1-191" target="dvFQtftQSCuBPZ-nTVd1-189">
          <mxGeometry width="50" height="50" relative="1" as="geometry">
            <mxPoint x="-2552" y="661.58" as="sourcePoint" />
            <mxPoint x="-2502" y="611.58" as="targetPoint" />
            <Array as="points">
              <mxPoint x="-2812" y="751.58" />
              <mxPoint x="-3132" y="691.58" />
            </Array>
          </mxGeometry>
        </mxCell>
        <mxCell id="dvFQtftQSCuBPZ-nTVd1-203" value="" style="curved=1;endArrow=classic;html=1;fillColor=#99FFFF;exitX=1;exitY=0.5;exitDx=0;exitDy=0;entryX=0.016;entryY=0.587;entryDx=0;entryDy=0;entryPerimeter=0;" edge="1" parent="1" source="dvFQtftQSCuBPZ-nTVd1-189" target="dvFQtftQSCuBPZ-nTVd1-191">
          <mxGeometry width="50" height="50" relative="1" as="geometry">
            <mxPoint x="-3092" y="561.58" as="sourcePoint" />
            <mxPoint x="-3042" y="511.5800000000001" as="targetPoint" />
            <Array as="points">
              <mxPoint x="-3032" y="541.58" />
              <mxPoint x="-2892" y="531.58" />
            </Array>
          </mxGeometry>
        </mxCell>
        <mxCell id="dvFQtftQSCuBPZ-nTVd1-204" value="&lt;b&gt;&lt;font face=&quot;Times New Roman&quot;&gt;hreq&lt;/font&gt;&lt;/b&gt;" style="text;html=1;strokeColor=none;fillColor=none;align=center;verticalAlign=middle;whiteSpace=wrap;rounded=0;" vertex="1" parent="1">
          <mxGeometry x="-2722" y="379.4800000000002" width="40" height="11" as="geometry" />
        </mxCell>
        <mxCell id="dvFQtftQSCuBPZ-nTVd1-205" value="&lt;b&gt;&lt;font face=&quot;Times New Roman&quot;&gt;NONSEQ &amp;amp;&amp;amp; !dec_error&lt;/font&gt;&lt;/b&gt;" style="text;html=1;strokeColor=none;fillColor=none;align=center;verticalAlign=middle;whiteSpace=wrap;rounded=0;" vertex="1" parent="1">
          <mxGeometry x="-3005" y="554.17" width="140" height="20" as="geometry" />
        </mxCell>
        <mxCell id="dvFQtftQSCuBPZ-nTVd1-206" value="" style="endArrow=none;html=1;fillColor=#99FFFF;entryX=0.917;entryY=1.036;entryDx=0;entryDy=0;entryPerimeter=0;" edge="1" parent="1" target="dvFQtftQSCuBPZ-nTVd1-205">
          <mxGeometry width="50" height="50" relative="1" as="geometry">
            <mxPoint x="-2995" y="575" as="sourcePoint" />
            <mxPoint x="-2885" y="575.0000000000001" as="targetPoint" />
          </mxGeometry>
        </mxCell>
        <mxCell id="dvFQtftQSCuBPZ-nTVd1-207" value="" style="curved=1;endArrow=classic;html=1;fillColor=#99FFFF;entryX=1;entryY=0;entryDx=0;entryDy=0;" edge="1" parent="1" source="dvFQtftQSCuBPZ-nTVd1-190" target="dvFQtftQSCuBPZ-nTVd1-189">
          <mxGeometry width="50" height="50" relative="1" as="geometry">
            <mxPoint x="-3052" y="481.5800000000001" as="sourcePoint" />
            <mxPoint x="-3002" y="431.5800000000001" as="targetPoint" />
            <Array as="points">
              <mxPoint x="-3002" y="481.5800000000001" />
            </Array>
          </mxGeometry>
        </mxCell>
        <mxCell id="dvFQtftQSCuBPZ-nTVd1-208" value="&lt;b&gt;&lt;font face=&quot;Times New Roman&quot;&gt;IDLE&lt;/font&gt;&lt;/b&gt;" style="text;html=1;strokeColor=none;fillColor=none;align=center;verticalAlign=middle;whiteSpace=wrap;rounded=0;" vertex="1" parent="1">
          <mxGeometry x="-3072" y="421.5800000000001" width="40" height="20" as="geometry" />
        </mxCell>
        <mxCell id="dvFQtftQSCuBPZ-nTVd1-209" value="" style="curved=1;endArrow=classic;html=1;fillColor=#99FFFF;entryX=0;entryY=0;entryDx=0;entryDy=0;" edge="1" parent="1" source="dvFQtftQSCuBPZ-nTVd1-189" target="dvFQtftQSCuBPZ-nTVd1-189">
          <mxGeometry width="50" height="50" relative="1" as="geometry">
            <mxPoint x="-3312" y="611.58" as="sourcePoint" />
            <mxPoint x="-3262" y="561.58" as="targetPoint" />
            <Array as="points">
              <mxPoint x="-3262" y="611.58" />
              <mxPoint x="-3312" y="561.58" />
            </Array>
          </mxGeometry>
        </mxCell>
        <mxCell id="dvFQtftQSCuBPZ-nTVd1-210" value="&lt;b&gt;&lt;font face=&quot;Times New Roman&quot;&gt;IDLE&lt;/font&gt;&lt;/b&gt;" style="text;html=1;strokeColor=none;fillColor=none;align=center;verticalAlign=middle;whiteSpace=wrap;rounded=0;" vertex="1" parent="1">
          <mxGeometry x="-3342" y="550.7499999999999" width="40" height="20" as="geometry" />
        </mxCell>
        <mxCell id="dvFQtftQSCuBPZ-nTVd1-211" value="" style="endArrow=none;html=1;fillColor=#99FFFF;entryX=1;entryY=1;entryDx=0;entryDy=0;" edge="1" parent="1" target="dvFQtftQSCuBPZ-nTVd1-194">
          <mxGeometry width="50" height="50" relative="1" as="geometry">
            <mxPoint x="-2772" y="374.6800000000003" as="sourcePoint" />
            <mxPoint x="-2722" y="324.6800000000001" as="targetPoint" />
          </mxGeometry>
        </mxCell>
        <mxCell id="dvFQtftQSCuBPZ-nTVd1-212" value="" style="curved=1;endArrow=classic;html=1;fillColor=#99FFFF;exitX=0;exitY=0;exitDx=0;exitDy=0;entryX=1;entryY=1;entryDx=0;entryDy=0;" edge="1" parent="1" source="dvFQtftQSCuBPZ-nTVd1-191" target="dvFQtftQSCuBPZ-nTVd1-190">
          <mxGeometry width="50" height="50" relative="1" as="geometry">
            <mxPoint x="-2882" y="441.5800000000001" as="sourcePoint" />
            <mxPoint x="-2832" y="391.5800000000001" as="targetPoint" />
            <Array as="points">
              <mxPoint x="-2822" y="481.5800000000001" />
              <mxPoint x="-2882" y="391.5800000000001" />
            </Array>
          </mxGeometry>
        </mxCell>
        <mxCell id="dvFQtftQSCuBPZ-nTVd1-213" value="" style="curved=1;endArrow=classic;html=1;fillColor=#99FFFF;exitX=1;exitY=1;exitDx=0;exitDy=0;entryX=1;entryY=0;entryDx=0;entryDy=0;" edge="1" parent="1" source="dvFQtftQSCuBPZ-nTVd1-191" target="dvFQtftQSCuBPZ-nTVd1-191">
          <mxGeometry width="50" height="50" relative="1" as="geometry">
            <mxPoint x="-2632" y="581.58" as="sourcePoint" />
            <mxPoint x="-2582" y="531.58" as="targetPoint" />
            <Array as="points">
              <mxPoint x="-2582" y="581.58" />
              <mxPoint x="-2612" y="541.58" />
              <mxPoint x="-2632" y="531.58" />
            </Array>
          </mxGeometry>
        </mxCell>
        <mxCell id="dvFQtftQSCuBPZ-nTVd1-214" value="" style="endArrow=none;html=1;fillColor=#99FFFF;" edge="1" parent="1">
          <mxGeometry width="50" height="50" relative="1" as="geometry">
            <mxPoint x="-2942" y="453.15999999999985" as="sourcePoint" />
            <mxPoint x="-2852" y="453.15999999999985" as="targetPoint" />
          </mxGeometry>
        </mxCell>
        <mxCell id="dvFQtftQSCuBPZ-nTVd1-215" value="&lt;b&gt;&lt;font face=&quot;Times New Roman&quot;&gt;default_slv_sel&lt;/font&gt;&lt;/b&gt;" style="text;html=1;strokeColor=none;fillColor=none;align=center;verticalAlign=middle;whiteSpace=wrap;rounded=0;" vertex="1" parent="1">
          <mxGeometry x="-2914" y="456.5800000000001" width="40" height="20" as="geometry" />
        </mxCell>
        <mxCell id="dvFQtftQSCuBPZ-nTVd1-216" value="&lt;b&gt;&lt;font face=&quot;Times New Roman&quot;&gt;hreq&lt;/font&gt;&lt;/b&gt;" style="text;html=1;strokeColor=none;fillColor=none;align=center;verticalAlign=middle;whiteSpace=wrap;rounded=0;" vertex="1" parent="1">
          <mxGeometry x="-2965" y="579.08" width="40" height="11" as="geometry" />
        </mxCell>
        <mxCell id="dvFQtftQSCuBPZ-nTVd1-217" value="" style="curved=1;endArrow=classic;html=1;fillColor=#99FFFF;exitX=1;exitY=0;exitDx=0;exitDy=0;entryX=0;entryY=0;entryDx=0;entryDy=0;" edge="1" parent="1" source="dvFQtftQSCuBPZ-nTVd1-190" target="dvFQtftQSCuBPZ-nTVd1-190">
          <mxGeometry width="50" height="50" relative="1" as="geometry">
            <mxPoint x="-2892" y="291.5800000000001" as="sourcePoint" />
            <mxPoint x="-2842" y="241.58000000000004" as="targetPoint" />
            <Array as="points">
              <mxPoint x="-2842" y="291.5800000000001" />
              <mxPoint x="-2903" y="241.58000000000004" />
              <mxPoint x="-3002" y="231.58000000000004" />
            </Array>
          </mxGeometry>
        </mxCell>
        <mxCell id="dvFQtftQSCuBPZ-nTVd1-218" value="&lt;b&gt;&lt;font face=&quot;Times New Roman&quot;&gt;default_slv_sel&lt;/font&gt;&lt;/b&gt;" style="text;html=1;strokeColor=none;fillColor=none;align=center;verticalAlign=middle;whiteSpace=wrap;rounded=0;" vertex="1" parent="1">
          <mxGeometry x="-2977" y="204.4100000000002" width="40" height="20" as="geometry" />
        </mxCell>
        <mxCell id="dvFQtftQSCuBPZ-nTVd1-219" value="&lt;b&gt;&lt;font face=&quot;Times New Roman&quot;&gt;(NONSEQ || SEQ) &amp;amp;&amp;amp; dec_error&lt;/font&gt;&lt;/b&gt;" style="text;html=1;strokeColor=none;fillColor=none;align=center;verticalAlign=middle;whiteSpace=wrap;rounded=0;" vertex="1" parent="1">
          <mxGeometry x="-3052" y="182.58000000000004" width="185" height="20" as="geometry" />
        </mxCell>
        <mxCell id="dvFQtftQSCuBPZ-nTVd1-220" value="" style="endArrow=none;html=1;fillColor=#99FFFF;" edge="1" parent="1">
          <mxGeometry width="50" height="50" relative="1" as="geometry">
            <mxPoint x="-3017" y="203.4100000000003" as="sourcePoint" />
            <mxPoint x="-2907" y="203.4100000000003" as="targetPoint" />
          </mxGeometry>
        </mxCell>
        <mxCell id="dvFQtftQSCuBPZ-nTVd1-221" value="" style="endArrow=none;html=1;fillColor=#99FFFF;" edge="1" parent="1">
          <mxGeometry width="50" height="50" relative="1" as="geometry">
            <mxPoint x="-3082" y="441.5799999999995" as="sourcePoint" />
            <mxPoint x="-3022" y="441.5799999999995" as="targetPoint" />
          </mxGeometry>
        </mxCell>
        <mxCell id="dvFQtftQSCuBPZ-nTVd1-222" value="&lt;b&gt;&lt;font face=&quot;Times New Roman&quot;&gt;default_slv_sel&lt;/font&gt;&lt;/b&gt;" style="text;html=1;strokeColor=none;fillColor=none;align=center;verticalAlign=middle;whiteSpace=wrap;rounded=0;" vertex="1" parent="1">
          <mxGeometry x="-3072" y="441.5800000000003" width="40" height="20" as="geometry" />
        </mxCell>
        <mxCell id="dvFQtftQSCuBPZ-nTVd1-223" value="" style="endArrow=none;html=1;fillColor=#99FFFF;" edge="1" parent="1">
          <mxGeometry width="50" height="50" relative="1" as="geometry">
            <mxPoint x="-2582" y="563.5799999999999" as="sourcePoint" />
            <mxPoint x="-2302" y="563.5799999999999" as="targetPoint" />
          </mxGeometry>
        </mxCell>
        <mxCell id="dvFQtftQSCuBPZ-nTVd1-224" value="" style="endArrow=classic;html=1;fillColor=#dae8fc;strokeColor=#6c8ebf;" edge="1" parent="1">
          <mxGeometry width="50" height="50" relative="1" as="geometry">
            <mxPoint x="-4168" y="580" as="sourcePoint" />
            <mxPoint x="-4167.85" y="446.94000000000005" as="targetPoint" />
          </mxGeometry>
        </mxCell>
        <mxCell id="dvFQtftQSCuBPZ-nTVd1-225" value="" style="endArrow=classic;html=1;fillColor=#dae8fc;strokeColor=#6c8ebf;" edge="1" parent="1">
          <mxGeometry width="50" height="50" relative="1" as="geometry">
            <mxPoint x="-3882" y="1199.5" as="sourcePoint" />
            <mxPoint x="-3882" y="400" as="targetPoint" />
          </mxGeometry>
        </mxCell>
        <mxCell id="dvFQtftQSCuBPZ-nTVd1-226" value="" style="endArrow=classic;startArrow=classic;html=1;fillColor=#99FFFF;" edge="1" parent="1">
          <mxGeometry width="50" height="50" relative="1" as="geometry">
            <mxPoint x="-4202" y="590" as="sourcePoint" />
            <mxPoint x="-4112" y="590" as="targetPoint" />
          </mxGeometry>
        </mxCell>
        <mxCell id="dvFQtftQSCuBPZ-nTVd1-227" value="&lt;b&gt;&lt;font face=&quot;Times New Roman&quot;&gt;hlast&lt;/font&gt;&lt;/b&gt;" style="text;html=1;strokeColor=none;fillColor=none;align=center;verticalAlign=middle;whiteSpace=wrap;rounded=0;" vertex="1" parent="1">
          <mxGeometry x="-4177" y="591" width="40" height="20" as="geometry" />
        </mxCell>
        <mxCell id="dvFQtftQSCuBPZ-nTVd1-228" value="" style="endArrow=none;html=1;fillColor=#99FFFF;" edge="1" parent="1">
          <mxGeometry width="50" height="50" relative="1" as="geometry">
            <mxPoint x="-4042" y="800" as="sourcePoint" />
            <mxPoint x="-4032" y="840" as="targetPoint" />
          </mxGeometry>
        </mxCell>
        <mxCell id="dvFQtftQSCuBPZ-nTVd1-229" value="" style="endArrow=none;html=1;fillColor=#99FFFF;" edge="1" parent="1">
          <mxGeometry width="50" height="50" relative="1" as="geometry">
            <mxPoint x="-4032" y="840" as="sourcePoint" />
            <mxPoint x="-3882" y="840" as="targetPoint" />
          </mxGeometry>
        </mxCell>
        <mxCell id="dvFQtftQSCuBPZ-nTVd1-230" value="" style="endArrow=none;html=1;fillColor=#99FFFF;" edge="1" parent="1">
          <mxGeometry width="50" height="50" relative="1" as="geometry">
            <mxPoint x="-3952" y="920" as="sourcePoint" />
            <mxPoint x="-3962" y="880" as="targetPoint" />
          </mxGeometry>
        </mxCell>
        <mxCell id="dvFQtftQSCuBPZ-nTVd1-231" value="" style="endArrow=none;html=1;fillColor=#99FFFF;" edge="1" parent="1">
          <mxGeometry width="50" height="50" relative="1" as="geometry">
            <mxPoint x="-3952" y="920" as="sourcePoint" />
            <mxPoint x="-3882" y="920" as="targetPoint" />
          </mxGeometry>
        </mxCell>
        <mxCell id="dvFQtftQSCuBPZ-nTVd1-232" value="&lt;font face=&quot;Times New Roman&quot;&gt;&lt;b&gt;hreq_c&lt;/b&gt;&lt;/font&gt;" style="text;html=1;strokeColor=none;fillColor=none;align=center;verticalAlign=middle;whiteSpace=wrap;rounded=0;" vertex="1" parent="1">
          <mxGeometry x="-4731.49" y="1050.07" width="40" height="20" as="geometry" />
        </mxCell>
        <mxCell id="dvFQtftQSCuBPZ-nTVd1-233" value="&lt;b&gt;&lt;font face=&quot;Times New Roman&quot;&gt;hsel_c&lt;/font&gt;&lt;/b&gt;" style="text;html=1;strokeColor=none;fillColor=none;align=center;verticalAlign=middle;whiteSpace=wrap;rounded=0;" vertex="1" parent="1">
          <mxGeometry x="-4731.49" y="1130.07" width="40" height="20" as="geometry" />
        </mxCell>
        <mxCell id="dvFQtftQSCuBPZ-nTVd1-234" value="&lt;b&gt;&lt;font face=&quot;Times New Roman&quot;&gt;hreadyout_c&lt;/font&gt;&lt;/b&gt;" style="text;html=1;strokeColor=none;fillColor=none;align=center;verticalAlign=middle;whiteSpace=wrap;rounded=0;" vertex="1" parent="1">
          <mxGeometry x="-4731.66" y="1210.07" width="40" height="20" as="geometry" />
        </mxCell>
        <mxCell id="dvFQtftQSCuBPZ-nTVd1-235" value="&lt;b&gt;&lt;font face=&quot;Times New Roman&quot;&gt;hresp_c&lt;/font&gt;&lt;/b&gt;" style="text;html=1;strokeColor=none;fillColor=none;align=center;verticalAlign=middle;whiteSpace=wrap;rounded=0;" vertex="1" parent="1">
          <mxGeometry x="-4731.49" y="1290.07" width="40" height="20" as="geometry" />
        </mxCell>
        <mxCell id="dvFQtftQSCuBPZ-nTVd1-236" value="" style="endArrow=none;html=1;" edge="1" parent="1">
          <mxGeometry width="50" height="50" relative="1" as="geometry">
            <mxPoint x="-4201.32" y="1079.9799999999996" as="sourcePoint" />
            <mxPoint x="-4041.3199999999997" y="1079.9799999999996" as="targetPoint" />
          </mxGeometry>
        </mxCell>
        <mxCell id="dvFQtftQSCuBPZ-nTVd1-237" value="" style="endArrow=none;html=1;" edge="1" parent="1">
          <mxGeometry width="50" height="50" relative="1" as="geometry">
            <mxPoint x="-4041.3199999999997" y="1079.9799999999996" as="sourcePoint" />
            <mxPoint x="-4031.3199999999997" y="1039.9799999999996" as="targetPoint" />
          </mxGeometry>
        </mxCell>
        <mxCell id="dvFQtftQSCuBPZ-nTVd1-238" value="" style="endArrow=none;html=1;" edge="1" parent="1">
          <mxGeometry width="50" height="50" relative="1" as="geometry">
            <mxPoint x="-4031.3199999999997" y="1039.9799999999996" as="sourcePoint" />
            <mxPoint x="-3562" y="1040" as="targetPoint" />
          </mxGeometry>
        </mxCell>
        <mxCell id="dvFQtftQSCuBPZ-nTVd1-239" value="" style="endArrow=none;html=1;" edge="1" parent="1">
          <mxGeometry width="50" height="50" relative="1" as="geometry">
            <mxPoint x="-4201.32" y="1159.9799999999996" as="sourcePoint" />
            <mxPoint x="-3961.3199999999997" y="1159.9799999999996" as="targetPoint" />
          </mxGeometry>
        </mxCell>
        <mxCell id="dvFQtftQSCuBPZ-nTVd1-240" value="" style="endArrow=none;html=1;" edge="1" parent="1">
          <mxGeometry width="50" height="50" relative="1" as="geometry">
            <mxPoint x="-3961.3199999999997" y="1159.9799999999996" as="sourcePoint" />
            <mxPoint x="-3951.3199999999997" y="1119.9799999999996" as="targetPoint" />
          </mxGeometry>
        </mxCell>
        <mxCell id="dvFQtftQSCuBPZ-nTVd1-241" value="" style="endArrow=none;html=1;" edge="1" parent="1">
          <mxGeometry width="50" height="50" relative="1" as="geometry">
            <mxPoint x="-3951.3199999999997" y="1119.9799999999996" as="sourcePoint" />
            <mxPoint x="-3801.3199999999997" y="1119.54" as="targetPoint" />
          </mxGeometry>
        </mxCell>
        <mxCell id="dvFQtftQSCuBPZ-nTVd1-242" value="" style="endArrow=classic;startArrow=classic;html=1;" edge="1" parent="1">
          <mxGeometry width="50" height="50" relative="1" as="geometry">
            <mxPoint x="-4041.3199999999997" y="1109.9799999999996" as="sourcePoint" />
            <mxPoint x="-3961.3199999999997" y="1109.9799999999996" as="targetPoint" />
          </mxGeometry>
        </mxCell>
        <mxCell id="dvFQtftQSCuBPZ-nTVd1-243" value="&lt;b&gt;&lt;font face=&quot;Times New Roman&quot;&gt;decode_cycle&lt;/font&gt;&lt;/b&gt;" style="text;html=1;strokeColor=none;fillColor=none;align=center;verticalAlign=middle;whiteSpace=wrap;rounded=0;" vertex="1" parent="1">
          <mxGeometry x="-4021.3199999999997" y="1079.9799999999998" width="40" height="20" as="geometry" />
        </mxCell>
        <mxCell id="dvFQtftQSCuBPZ-nTVd1-244" value="" style="endArrow=classic;startArrow=classic;html=1;" edge="1" parent="1">
          <mxGeometry width="50" height="50" relative="1" as="geometry">
            <mxPoint x="-3961.3199999999997" y="1179.9799999999996" as="sourcePoint" />
            <mxPoint x="-3881.3199999999997" y="1179.9799999999996" as="targetPoint" />
          </mxGeometry>
        </mxCell>
        <mxCell id="dvFQtftQSCuBPZ-nTVd1-245" value="&lt;b&gt;&lt;font face=&quot;Times New Roman&quot;&gt;arbitrate_cycle&lt;/font&gt;&lt;/b&gt;" style="text;html=1;strokeColor=none;fillColor=none;align=center;verticalAlign=middle;whiteSpace=wrap;rounded=0;" vertex="1" parent="1">
          <mxGeometry x="-3941.3199999999997" y="1149.9799999999998" width="40" height="20" as="geometry" />
        </mxCell>
        <mxCell id="dvFQtftQSCuBPZ-nTVd1-246" value="" style="endArrow=none;html=1;" edge="1" parent="1">
          <mxGeometry width="50" height="50" relative="1" as="geometry">
            <mxPoint x="-4201.32" y="1199.9799999999996" as="sourcePoint" />
            <mxPoint x="-3801.3199999999997" y="1199.9799999999996" as="targetPoint" />
          </mxGeometry>
        </mxCell>
        <mxCell id="dvFQtftQSCuBPZ-nTVd1-247" value="" style="endArrow=none;html=1;fillColor=#99FFFF;" edge="1" parent="1">
          <mxGeometry width="50" height="50" relative="1" as="geometry">
            <mxPoint x="-4201.32" y="1320.4799999999996" as="sourcePoint" />
            <mxPoint x="-3721.3199999999997" y="1320.9799999999996" as="targetPoint" />
          </mxGeometry>
        </mxCell>
        <mxCell id="dvFQtftQSCuBPZ-nTVd1-248" value="" style="endArrow=none;html=1;fillColor=#99FFFF;" edge="1" parent="1">
          <mxGeometry width="50" height="50" relative="1" as="geometry">
            <mxPoint x="-3801.3199999999997" y="1199.9799999999996" as="sourcePoint" />
            <mxPoint x="-3791.3199999999997" y="1239.9799999999996" as="targetPoint" />
          </mxGeometry>
        </mxCell>
        <mxCell id="dvFQtftQSCuBPZ-nTVd1-249" value="" style="endArrow=none;html=1;fillColor=#99FFFF;" edge="1" parent="1">
          <mxGeometry width="50" height="50" relative="1" as="geometry">
            <mxPoint x="-3791.3199999999997" y="1239.9799999999996" as="sourcePoint" />
            <mxPoint x="-3641.3199999999997" y="1239.9799999999996" as="targetPoint" />
          </mxGeometry>
        </mxCell>
        <mxCell id="dvFQtftQSCuBPZ-nTVd1-250" value="" style="endArrow=none;html=1;fillColor=#99FFFF;" edge="1" parent="1">
          <mxGeometry width="50" height="50" relative="1" as="geometry">
            <mxPoint x="-3641.3199999999997" y="1239.9799999999996" as="sourcePoint" />
            <mxPoint x="-3631.3199999999997" y="1199.9799999999996" as="targetPoint" />
          </mxGeometry>
        </mxCell>
        <mxCell id="dvFQtftQSCuBPZ-nTVd1-251" value="" style="endArrow=none;html=1;fillColor=#99FFFF;" edge="1" parent="1">
          <mxGeometry width="50" height="50" relative="1" as="geometry">
            <mxPoint x="-3631.3199999999997" y="1199.9799999999996" as="sourcePoint" />
            <mxPoint x="-3362" y="1201" as="targetPoint" />
          </mxGeometry>
        </mxCell>
        <mxCell id="dvFQtftQSCuBPZ-nTVd1-252" value="" style="endArrow=none;html=1;fillColor=#99FFFF;" edge="1" parent="1">
          <mxGeometry width="50" height="50" relative="1" as="geometry">
            <mxPoint x="-3721.3199999999997" y="1319.9799999999996" as="sourcePoint" />
            <mxPoint x="-3711.3199999999997" y="1279.9799999999996" as="targetPoint" />
          </mxGeometry>
        </mxCell>
        <mxCell id="dvFQtftQSCuBPZ-nTVd1-253" value="" style="endArrow=none;html=1;fillColor=#99FFFF;" edge="1" parent="1">
          <mxGeometry width="50" height="50" relative="1" as="geometry">
            <mxPoint x="-3711.3199999999997" y="1279.9799999999996" as="sourcePoint" />
            <mxPoint x="-3562" y="1280" as="targetPoint" />
          </mxGeometry>
        </mxCell>
        <mxCell id="dvFQtftQSCuBPZ-nTVd1-254" value="" style="endArrow=none;html=1;fillColor=#99FFFF;" edge="1" parent="1">
          <mxGeometry width="50" height="50" relative="1" as="geometry">
            <mxPoint x="-3562" y="1038.8000000000002" as="sourcePoint" />
            <mxPoint x="-3552" y="1078.8000000000002" as="targetPoint" />
          </mxGeometry>
        </mxCell>
        <mxCell id="dvFQtftQSCuBPZ-nTVd1-255" value="" style="endArrow=none;html=1;fillColor=#99FFFF;" edge="1" parent="1">
          <mxGeometry width="50" height="50" relative="1" as="geometry">
            <mxPoint x="-3552" y="1078.8000000000002" as="sourcePoint" />
            <mxPoint x="-3482" y="1079" as="targetPoint" />
          </mxGeometry>
        </mxCell>
        <mxCell id="dvFQtftQSCuBPZ-nTVd1-256" value="" style="endArrow=none;html=1;fillColor=#99FFFF;" edge="1" parent="1">
          <mxGeometry width="50" height="50" relative="1" as="geometry">
            <mxPoint x="-3791.3199999999997" y="1159.54" as="sourcePoint" />
            <mxPoint x="-3801.3199999999997" y="1119.54" as="targetPoint" />
          </mxGeometry>
        </mxCell>
        <mxCell id="dvFQtftQSCuBPZ-nTVd1-257" value="" style="endArrow=none;html=1;fillColor=#99FFFF;" edge="1" parent="1">
          <mxGeometry width="50" height="50" relative="1" as="geometry">
            <mxPoint x="-3791.3199999999997" y="1159.54" as="sourcePoint" />
            <mxPoint x="-3362" y="1160" as="targetPoint" />
          </mxGeometry>
        </mxCell>
        <mxCell id="dvFQtftQSCuBPZ-nTVd1-258" value="" style="endArrow=classic;html=1;fillColor=#dae8fc;strokeColor=#6c8ebf;" edge="1" parent="1">
          <mxGeometry width="50" height="50" relative="1" as="geometry">
            <mxPoint x="-3952" y="1200" as="sourcePoint" />
            <mxPoint x="-3952" y="400" as="targetPoint" />
          </mxGeometry>
        </mxCell>
        <mxCell id="dvFQtftQSCuBPZ-nTVd1-259" value="" style="endArrow=classic;startArrow=classic;html=1;fillColor=#99FFFF;" edge="1" parent="1">
          <mxGeometry width="50" height="50" relative="1" as="geometry">
            <mxPoint x="-4051.08" y="899.0000000000005" as="sourcePoint" />
            <mxPoint x="-3961.08" y="899.0000000000005" as="targetPoint" />
          </mxGeometry>
        </mxCell>
        <mxCell id="dvFQtftQSCuBPZ-nTVd1-260" value="&lt;b&gt;&lt;font face=&quot;Times New Roman&quot;&gt;hlast&lt;/font&gt;&lt;/b&gt;" style="text;html=1;strokeColor=none;fillColor=none;align=center;verticalAlign=middle;whiteSpace=wrap;rounded=0;" vertex="1" parent="1">
          <mxGeometry x="-4026.08" y="900" width="40" height="20" as="geometry" />
        </mxCell>
        <mxCell id="dvFQtftQSCuBPZ-nTVd1-261" value="" style="endArrow=none;html=1;" edge="1" parent="1">
          <mxGeometry width="50" height="50" relative="1" as="geometry">
            <mxPoint x="-3802" y="320.00000000000045" as="sourcePoint" />
            <mxPoint x="-3792" y="360.00000000000045" as="targetPoint" />
          </mxGeometry>
        </mxCell>
        <mxCell id="dvFQtftQSCuBPZ-nTVd1-262" value="" style="endArrow=none;html=1;" edge="1" parent="1">
          <mxGeometry width="50" height="50" relative="1" as="geometry">
            <mxPoint x="-3802" y="360.00000000000045" as="sourcePoint" />
            <mxPoint x="-3792" y="320.00000000000045" as="targetPoint" />
          </mxGeometry>
        </mxCell>
        <mxCell id="dvFQtftQSCuBPZ-nTVd1-263" value="C4" style="text;html=1;strokeColor=none;fillColor=none;align=center;verticalAlign=middle;whiteSpace=wrap;rounded=0;" vertex="1" parent="1">
          <mxGeometry x="-3782" y="329.8300000000001" width="40" height="20" as="geometry" />
        </mxCell>
        <mxCell id="dvFQtftQSCuBPZ-nTVd1-264" value="" style="endArrow=none;html=1;" edge="1" parent="1">
          <mxGeometry width="50" height="50" relative="1" as="geometry">
            <mxPoint x="-3792" y="320.00000000000045" as="sourcePoint" />
            <mxPoint x="-3562" y="320" as="targetPoint" />
          </mxGeometry>
        </mxCell>
        <mxCell id="dvFQtftQSCuBPZ-nTVd1-265" value="" style="endArrow=none;html=1;" edge="1" parent="1">
          <mxGeometry width="50" height="50" relative="1" as="geometry">
            <mxPoint x="-3792" y="360.00000000000045" as="sourcePoint" />
            <mxPoint x="-3562" y="360" as="targetPoint" />
          </mxGeometry>
        </mxCell>
        <mxCell id="dvFQtftQSCuBPZ-nTVd1-266" value="" style="endArrow=none;html=1;fillColor=#99FFFF;" edge="1" parent="1">
          <mxGeometry width="50" height="50" relative="1" as="geometry">
            <mxPoint x="-3792" y="440" as="sourcePoint" />
            <mxPoint x="-3802" y="400" as="targetPoint" />
          </mxGeometry>
        </mxCell>
        <mxCell id="dvFQtftQSCuBPZ-nTVd1-267" value="" style="endArrow=none;html=1;fillColor=#99FFFF;" edge="1" parent="1">
          <mxGeometry width="50" height="50" relative="1" as="geometry">
            <mxPoint x="-3792" y="440" as="sourcePoint" />
            <mxPoint x="-3642" y="440" as="targetPoint" />
          </mxGeometry>
        </mxCell>
        <mxCell id="dvFQtftQSCuBPZ-nTVd1-268" value="" style="endArrow=none;html=1;fillColor=#99FFFF;" edge="1" parent="1">
          <mxGeometry width="50" height="50" relative="1" as="geometry">
            <mxPoint x="-3642" y="440" as="sourcePoint" />
            <mxPoint x="-3632" y="400" as="targetPoint" />
          </mxGeometry>
        </mxCell>
        <mxCell id="dvFQtftQSCuBPZ-nTVd1-269" value="" style="endArrow=none;html=1;fillColor=#99FFFF;" edge="1" parent="1">
          <mxGeometry width="50" height="50" relative="1" as="geometry">
            <mxPoint x="-3632" y="400" as="sourcePoint" />
            <mxPoint x="-3562" y="400" as="targetPoint" />
          </mxGeometry>
        </mxCell>
        <mxCell id="dvFQtftQSCuBPZ-nTVd1-270" value="" style="endArrow=none;html=1;fillColor=#99FFFF;" edge="1" parent="1">
          <mxGeometry width="50" height="50" relative="1" as="geometry">
            <mxPoint x="-3562" y="1280.0699999999997" as="sourcePoint" />
            <mxPoint x="-3552" y="1320.0699999999997" as="targetPoint" />
          </mxGeometry>
        </mxCell>
        <mxCell id="dvFQtftQSCuBPZ-nTVd1-271" value="" style="endArrow=none;html=1;" edge="1" parent="1">
          <mxGeometry width="50" height="50" relative="1" as="geometry">
            <mxPoint x="-3204.1800000000003" y="839.6399999999999" as="sourcePoint" />
            <mxPoint x="-3204.1800000000003" y="799.6399999999999" as="targetPoint" />
          </mxGeometry>
        </mxCell>
        <mxCell id="dvFQtftQSCuBPZ-nTVd1-272" value="" style="endArrow=none;html=1;" edge="1" parent="1">
          <mxGeometry width="50" height="50" relative="1" as="geometry">
            <mxPoint x="-3204.1800000000003" y="799.6399999999999" as="sourcePoint" />
            <mxPoint x="-3164.1800000000003" y="799.6399999999999" as="targetPoint" />
            <Array as="points">
              <mxPoint x="-3184.1800000000003" y="799.6400000000001" />
            </Array>
          </mxGeometry>
        </mxCell>
        <mxCell id="dvFQtftQSCuBPZ-nTVd1-273" value="" style="endArrow=none;html=1;" edge="1" parent="1">
          <mxGeometry width="50" height="50" relative="1" as="geometry">
            <mxPoint x="-3164.1800000000003" y="799.6399999999999" as="sourcePoint" />
            <mxPoint x="-3164.1800000000003" y="839.6399999999999" as="targetPoint" />
          </mxGeometry>
        </mxCell>
        <mxCell id="dvFQtftQSCuBPZ-nTVd1-274" value="" style="endArrow=none;html=1;" edge="1" parent="1">
          <mxGeometry width="50" height="50" relative="1" as="geometry">
            <mxPoint x="-3164.1800000000003" y="839.6399999999999" as="sourcePoint" />
            <mxPoint x="-3124.1800000000003" y="839.6399999999999" as="targetPoint" />
          </mxGeometry>
        </mxCell>
        <mxCell id="dvFQtftQSCuBPZ-nTVd1-275" value="" style="endArrow=none;html=1;" edge="1" parent="1">
          <mxGeometry width="50" height="50" relative="1" as="geometry">
            <mxPoint x="-3124.1800000000003" y="839.6399999999999" as="sourcePoint" />
            <mxPoint x="-3124.1800000000003" y="799.6399999999999" as="targetPoint" />
          </mxGeometry>
        </mxCell>
        <mxCell id="dvFQtftQSCuBPZ-nTVd1-276" value="" style="endArrow=none;html=1;" edge="1" parent="1">
          <mxGeometry width="50" height="50" relative="1" as="geometry">
            <mxPoint x="-3124.1800000000003" y="799.6399999999999" as="sourcePoint" />
            <mxPoint x="-3084.1800000000003" y="799.6399999999999" as="targetPoint" />
          </mxGeometry>
        </mxCell>
        <mxCell id="dvFQtftQSCuBPZ-nTVd1-277" value="" style="endArrow=none;html=1;" edge="1" parent="1">
          <mxGeometry width="50" height="50" relative="1" as="geometry">
            <mxPoint x="-3084.1800000000003" y="799.6399999999999" as="sourcePoint" />
            <mxPoint x="-3084.1800000000003" y="839.6399999999999" as="targetPoint" />
          </mxGeometry>
        </mxCell>
        <mxCell id="dvFQtftQSCuBPZ-nTVd1-278" value="" style="endArrow=none;html=1;" edge="1" parent="1">
          <mxGeometry width="50" height="50" relative="1" as="geometry">
            <mxPoint x="-3084.1800000000003" y="839.6399999999999" as="sourcePoint" />
            <mxPoint x="-3044.1800000000003" y="839.6399999999999" as="targetPoint" />
          </mxGeometry>
        </mxCell>
        <mxCell id="dvFQtftQSCuBPZ-nTVd1-279" value="" style="endArrow=none;html=1;" edge="1" parent="1">
          <mxGeometry width="50" height="50" relative="1" as="geometry">
            <mxPoint x="-3044.1800000000003" y="839.6399999999999" as="sourcePoint" />
            <mxPoint x="-3044.1800000000003" y="799.6399999999999" as="targetPoint" />
          </mxGeometry>
        </mxCell>
        <mxCell id="dvFQtftQSCuBPZ-nTVd1-280" value="" style="endArrow=none;html=1;" edge="1" parent="1">
          <mxGeometry width="50" height="50" relative="1" as="geometry">
            <mxPoint x="-3044.1800000000003" y="799.6399999999999" as="sourcePoint" />
            <mxPoint x="-3004.1800000000003" y="799.6399999999999" as="targetPoint" />
          </mxGeometry>
        </mxCell>
        <mxCell id="dvFQtftQSCuBPZ-nTVd1-281" value="" style="endArrow=none;html=1;" edge="1" parent="1">
          <mxGeometry width="50" height="50" relative="1" as="geometry">
            <mxPoint x="-3004.1800000000003" y="799.6399999999999" as="sourcePoint" />
            <mxPoint x="-3004.1800000000003" y="839.6399999999999" as="targetPoint" />
          </mxGeometry>
        </mxCell>
        <mxCell id="dvFQtftQSCuBPZ-nTVd1-282" value="" style="endArrow=none;html=1;" edge="1" parent="1">
          <mxGeometry width="50" height="50" relative="1" as="geometry">
            <mxPoint x="-3004.1800000000003" y="839.6399999999999" as="sourcePoint" />
            <mxPoint x="-2964.1800000000003" y="839.6399999999999" as="targetPoint" />
          </mxGeometry>
        </mxCell>
        <mxCell id="dvFQtftQSCuBPZ-nTVd1-283" value="" style="endArrow=none;html=1;" edge="1" parent="1">
          <mxGeometry width="50" height="50" relative="1" as="geometry">
            <mxPoint x="-2964.1800000000003" y="839.6399999999999" as="sourcePoint" />
            <mxPoint x="-2964.1800000000003" y="799.6399999999999" as="targetPoint" />
          </mxGeometry>
        </mxCell>
        <mxCell id="dvFQtftQSCuBPZ-nTVd1-284" value="" style="endArrow=none;html=1;" edge="1" parent="1">
          <mxGeometry width="50" height="50" relative="1" as="geometry">
            <mxPoint x="-2964.1800000000003" y="799.6399999999999" as="sourcePoint" />
            <mxPoint x="-2924.1800000000003" y="799.6399999999999" as="targetPoint" />
          </mxGeometry>
        </mxCell>
        <mxCell id="dvFQtftQSCuBPZ-nTVd1-285" value="" style="endArrow=none;html=1;" edge="1" parent="1">
          <mxGeometry width="50" height="50" relative="1" as="geometry">
            <mxPoint x="-2924.1800000000003" y="799.6399999999999" as="sourcePoint" />
            <mxPoint x="-2924.1800000000003" y="839.6399999999999" as="targetPoint" />
          </mxGeometry>
        </mxCell>
        <mxCell id="dvFQtftQSCuBPZ-nTVd1-286" value="" style="endArrow=none;html=1;" edge="1" parent="1">
          <mxGeometry width="50" height="50" relative="1" as="geometry">
            <mxPoint x="-2924.1800000000003" y="839.6399999999999" as="sourcePoint" />
            <mxPoint x="-2884.1800000000003" y="839.6399999999999" as="targetPoint" />
          </mxGeometry>
        </mxCell>
        <mxCell id="dvFQtftQSCuBPZ-nTVd1-287" value="" style="endArrow=none;html=1;" edge="1" parent="1">
          <mxGeometry width="50" height="50" relative="1" as="geometry">
            <mxPoint x="-2884.1800000000003" y="839.6399999999999" as="sourcePoint" />
            <mxPoint x="-2884.1800000000003" y="799.6399999999999" as="targetPoint" />
          </mxGeometry>
        </mxCell>
        <mxCell id="dvFQtftQSCuBPZ-nTVd1-288" value="" style="endArrow=none;html=1;" edge="1" parent="1">
          <mxGeometry width="50" height="50" relative="1" as="geometry">
            <mxPoint x="-3204" y="1081.380000000001" as="sourcePoint" />
            <mxPoint x="-3194" y="1041.380000000001" as="targetPoint" />
          </mxGeometry>
        </mxCell>
        <mxCell id="dvFQtftQSCuBPZ-nTVd1-289" value="" style="endArrow=none;html=1;" edge="1" parent="1">
          <mxGeometry width="50" height="50" relative="1" as="geometry">
            <mxPoint x="-2884" y="1039.92" as="sourcePoint" />
            <mxPoint x="-2874" y="1079.92" as="targetPoint" />
          </mxGeometry>
        </mxCell>
        <mxCell id="dvFQtftQSCuBPZ-nTVd1-290" value="" style="endArrow=none;html=1;" edge="1" parent="1">
          <mxGeometry width="50" height="50" relative="1" as="geometry">
            <mxPoint x="-2884" y="1079.92" as="sourcePoint" />
            <mxPoint x="-2874" y="1039.92" as="targetPoint" />
          </mxGeometry>
        </mxCell>
        <mxCell id="dvFQtftQSCuBPZ-nTVd1-291" value="" style="endArrow=none;html=1;" edge="1" parent="1">
          <mxGeometry width="50" height="50" relative="1" as="geometry">
            <mxPoint x="-3204" y="1041.380000000001" as="sourcePoint" />
            <mxPoint x="-3194" y="1081.380000000001" as="targetPoint" />
          </mxGeometry>
        </mxCell>
        <mxCell id="dvFQtftQSCuBPZ-nTVd1-292" value="&lt;font face=&quot;Times New Roman&quot;&gt;&lt;b&gt;wrong addr&lt;/b&gt;&lt;/font&gt;" style="text;html=1;align=center;verticalAlign=middle;resizable=0;points=[];autosize=1;" vertex="1" parent="1">
          <mxGeometry x="-3198.83" y="1050.5800000000004" width="80" height="20" as="geometry" />
        </mxCell>
        <mxCell id="dvFQtftQSCuBPZ-nTVd1-293" value="&lt;b&gt;&lt;font face=&quot;Times New Roman&quot;&gt;haddr&lt;/font&gt;&lt;/b&gt;" style="text;html=1;strokeColor=none;fillColor=none;align=center;verticalAlign=middle;whiteSpace=wrap;rounded=0;" vertex="1" parent="1">
          <mxGeometry x="-3334" y="1051.3800000000006" width="40" height="20" as="geometry" />
        </mxCell>
        <mxCell id="dvFQtftQSCuBPZ-nTVd1-294" value="" style="endArrow=none;html=1;" edge="1" parent="1">
          <mxGeometry width="50" height="50" relative="1" as="geometry">
            <mxPoint x="-3284" y="1080.75" as="sourcePoint" />
            <mxPoint x="-2884" y="1080.380000000001" as="targetPoint" />
          </mxGeometry>
        </mxCell>
        <mxCell id="dvFQtftQSCuBPZ-nTVd1-295" value="" style="endArrow=none;html=1;" edge="1" parent="1">
          <mxGeometry width="50" height="50" relative="1" as="geometry">
            <mxPoint x="-3284" y="1040.75" as="sourcePoint" />
            <mxPoint x="-2884" y="1040.380000000001" as="targetPoint" />
          </mxGeometry>
        </mxCell>
        <mxCell id="dvFQtftQSCuBPZ-nTVd1-296" value="&lt;b&gt;&lt;font face=&quot;Times New Roman&quot;&gt;DFSM&lt;/font&gt;&lt;/b&gt;" style="text;html=1;strokeColor=none;fillColor=none;align=center;verticalAlign=middle;whiteSpace=wrap;rounded=0;" vertex="1" parent="1">
          <mxGeometry x="-3334" y="970.7900000000001" width="40" height="20" as="geometry" />
        </mxCell>
        <mxCell id="dvFQtftQSCuBPZ-nTVd1-297" value="" style="endArrow=none;html=1;" edge="1" parent="1">
          <mxGeometry width="50" height="50" relative="1" as="geometry">
            <mxPoint x="-3284" y="959.2900000000004" as="sourcePoint" />
            <mxPoint x="-3274" y="999.2900000000004" as="targetPoint" />
          </mxGeometry>
        </mxCell>
        <mxCell id="dvFQtftQSCuBPZ-nTVd1-298" value="" style="endArrow=none;html=1;" edge="1" parent="1">
          <mxGeometry width="50" height="50" relative="1" as="geometry">
            <mxPoint x="-3284" y="999.2900000000004" as="sourcePoint" />
            <mxPoint x="-3274" y="959.2900000000004" as="targetPoint" />
          </mxGeometry>
        </mxCell>
        <mxCell id="dvFQtftQSCuBPZ-nTVd1-299" value="&lt;b&gt;&lt;font face=&quot;Times New Roman&quot;&gt;ERROR&lt;/font&gt;&lt;/b&gt;" style="text;html=1;strokeColor=none;fillColor=none;align=center;verticalAlign=middle;whiteSpace=wrap;rounded=0;" vertex="1" parent="1">
          <mxGeometry x="-3097" y="969.7900000000002" width="40" height="20" as="geometry" />
        </mxCell>
        <mxCell id="dvFQtftQSCuBPZ-nTVd1-300" value="" style="endArrow=none;html=1;" edge="1" parent="1">
          <mxGeometry width="50" height="50" relative="1" as="geometry">
            <mxPoint x="-3124" y="959.5800000000004" as="sourcePoint" />
            <mxPoint x="-3114" y="999.5800000000008" as="targetPoint" />
          </mxGeometry>
        </mxCell>
        <mxCell id="dvFQtftQSCuBPZ-nTVd1-301" value="" style="endArrow=none;html=1;" edge="1" parent="1">
          <mxGeometry width="50" height="50" relative="1" as="geometry">
            <mxPoint x="-3124" y="999.5800000000008" as="sourcePoint" />
            <mxPoint x="-3114" y="959.5800000000004" as="targetPoint" />
          </mxGeometry>
        </mxCell>
        <mxCell id="dvFQtftQSCuBPZ-nTVd1-302" value="&lt;b&gt;&lt;font face=&quot;Times New Roman&quot;&gt;IDLE&lt;/font&gt;&lt;/b&gt;" style="text;html=1;strokeColor=none;fillColor=none;align=center;verticalAlign=middle;whiteSpace=wrap;rounded=0;" vertex="1" parent="1">
          <mxGeometry x="-3263.83" y="969.58" width="40" height="20" as="geometry" />
        </mxCell>
        <mxCell id="dvFQtftQSCuBPZ-nTVd1-303" value="" style="endArrow=none;html=1;" edge="1" parent="1">
          <mxGeometry width="50" height="50" relative="1" as="geometry">
            <mxPoint x="-3274" y="959.3699999999994" as="sourcePoint" />
            <mxPoint x="-3124" y="959.5800000000004" as="targetPoint" />
          </mxGeometry>
        </mxCell>
        <mxCell id="dvFQtftQSCuBPZ-nTVd1-304" value="" style="endArrow=none;html=1;" edge="1" parent="1">
          <mxGeometry width="50" height="50" relative="1" as="geometry">
            <mxPoint x="-3274" y="999.8700000000003" as="sourcePoint" />
            <mxPoint x="-3124" y="999.5800000000004" as="targetPoint" />
          </mxGeometry>
        </mxCell>
        <mxCell id="dvFQtftQSCuBPZ-nTVd1-305" value="" style="endArrow=none;html=1;" edge="1" parent="1">
          <mxGeometry width="50" height="50" relative="1" as="geometry">
            <mxPoint x="-3283.6600000000008" y="839.6399999999999" as="sourcePoint" />
            <mxPoint x="-3283.6600000000008" y="799.6399999999999" as="targetPoint" />
          </mxGeometry>
        </mxCell>
        <mxCell id="dvFQtftQSCuBPZ-nTVd1-306" value="" style="endArrow=none;html=1;" edge="1" parent="1">
          <mxGeometry width="50" height="50" relative="1" as="geometry">
            <mxPoint x="-3283.6600000000008" y="799.6399999999999" as="sourcePoint" />
            <mxPoint x="-3243.6600000000008" y="799.6399999999999" as="targetPoint" />
            <Array as="points">
              <mxPoint x="-3263.66" y="799.6400000000001" />
            </Array>
          </mxGeometry>
        </mxCell>
        <mxCell id="dvFQtftQSCuBPZ-nTVd1-307" value="" style="endArrow=none;html=1;" edge="1" parent="1">
          <mxGeometry width="50" height="50" relative="1" as="geometry">
            <mxPoint x="-3243.6600000000008" y="799.6399999999999" as="sourcePoint" />
            <mxPoint x="-3243.6600000000008" y="839.6399999999999" as="targetPoint" />
          </mxGeometry>
        </mxCell>
        <mxCell id="dvFQtftQSCuBPZ-nTVd1-308" value="" style="endArrow=none;html=1;" edge="1" parent="1">
          <mxGeometry width="50" height="50" relative="1" as="geometry">
            <mxPoint x="-3243.6600000000008" y="839.6399999999999" as="sourcePoint" />
            <mxPoint x="-3203.6600000000008" y="839.6399999999999" as="targetPoint" />
          </mxGeometry>
        </mxCell>
        <mxCell id="dvFQtftQSCuBPZ-nTVd1-309" value="&lt;b&gt;&lt;font face=&quot;Times New Roman&quot;&gt;htrans&lt;/font&gt;&lt;/b&gt;" style="text;html=1;strokeColor=none;fillColor=none;align=center;verticalAlign=middle;whiteSpace=wrap;rounded=0;" vertex="1" parent="1">
          <mxGeometry x="-3333.83" y="890.2300000000002" width="40" height="20" as="geometry" />
        </mxCell>
        <mxCell id="dvFQtftQSCuBPZ-nTVd1-310" value="" style="endArrow=none;html=1;" edge="1" parent="1">
          <mxGeometry width="50" height="50" relative="1" as="geometry">
            <mxPoint x="-3284" y="881.0600000000004" as="sourcePoint" />
            <mxPoint x="-3274" y="921.0600000000004" as="targetPoint" />
          </mxGeometry>
        </mxCell>
        <mxCell id="dvFQtftQSCuBPZ-nTVd1-311" value="" style="endArrow=none;html=1;" edge="1" parent="1">
          <mxGeometry width="50" height="50" relative="1" as="geometry">
            <mxPoint x="-3284" y="921.0600000000004" as="sourcePoint" />
            <mxPoint x="-3274" y="881.0600000000004" as="targetPoint" />
          </mxGeometry>
        </mxCell>
        <mxCell id="dvFQtftQSCuBPZ-nTVd1-312" value="&lt;b&gt;&lt;font face=&quot;Times New Roman&quot;&gt;NONSEQ&lt;/font&gt;&lt;/b&gt;" style="text;html=1;strokeColor=none;fillColor=none;align=center;verticalAlign=middle;whiteSpace=wrap;rounded=0;" vertex="1" parent="1">
          <mxGeometry x="-3173.83" y="889.47" width="40" height="20" as="geometry" />
        </mxCell>
        <mxCell id="dvFQtftQSCuBPZ-nTVd1-313" value="" style="endArrow=none;html=1;" edge="1" parent="1">
          <mxGeometry width="50" height="50" relative="1" as="geometry">
            <mxPoint x="-3194" y="880.6400000000003" as="sourcePoint" />
            <mxPoint x="-3123.83" y="879.8200000000002" as="targetPoint" />
          </mxGeometry>
        </mxCell>
        <mxCell id="dvFQtftQSCuBPZ-nTVd1-314" value="" style="endArrow=none;html=1;" edge="1" parent="1">
          <mxGeometry width="50" height="50" relative="1" as="geometry">
            <mxPoint x="-3194" y="920.6400000000003" as="sourcePoint" />
            <mxPoint x="-3123.83" y="919.8200000000002" as="targetPoint" />
          </mxGeometry>
        </mxCell>
        <mxCell id="dvFQtftQSCuBPZ-nTVd1-315" value="" style="endArrow=none;html=1;" edge="1" parent="1">
          <mxGeometry width="50" height="50" relative="1" as="geometry">
            <mxPoint x="-3123.66" y="879.8600000000001" as="sourcePoint" />
            <mxPoint x="-3113.83" y="920.2700000000004" as="targetPoint" />
          </mxGeometry>
        </mxCell>
        <mxCell id="dvFQtftQSCuBPZ-nTVd1-316" value="" style="endArrow=none;html=1;" edge="1" parent="1">
          <mxGeometry width="50" height="50" relative="1" as="geometry">
            <mxPoint x="-3123.83" y="920.2700000000004" as="sourcePoint" />
            <mxPoint x="-3113.83" y="880.2700000000004" as="targetPoint" />
          </mxGeometry>
        </mxCell>
        <mxCell id="dvFQtftQSCuBPZ-nTVd1-317" value="" style="endArrow=none;html=1;" edge="1" parent="1">
          <mxGeometry width="50" height="50" relative="1" as="geometry">
            <mxPoint x="-3273.83" y="880.2300000000009" as="sourcePoint" />
            <mxPoint x="-3203.83" y="880.2300000000009" as="targetPoint" />
          </mxGeometry>
        </mxCell>
        <mxCell id="dvFQtftQSCuBPZ-nTVd1-318" value="" style="endArrow=none;html=1;" edge="1" parent="1">
          <mxGeometry width="50" height="50" relative="1" as="geometry">
            <mxPoint x="-3273.83" y="920.2300000000009" as="sourcePoint" />
            <mxPoint x="-3203.83" y="920.2300000000009" as="targetPoint" />
          </mxGeometry>
        </mxCell>
        <mxCell id="dvFQtftQSCuBPZ-nTVd1-319" value="&lt;b&gt;&lt;font face=&quot;Times New Roman&quot;&gt;IDLE&lt;/font&gt;&lt;/b&gt;" style="text;html=1;strokeColor=none;fillColor=none;align=center;verticalAlign=middle;whiteSpace=wrap;rounded=0;" vertex="1" parent="1">
          <mxGeometry x="-3263.83" y="890.0600000000002" width="40" height="20" as="geometry" />
        </mxCell>
        <mxCell id="dvFQtftQSCuBPZ-nTVd1-320" value="" style="endArrow=none;html=1;" edge="1" parent="1">
          <mxGeometry width="50" height="50" relative="1" as="geometry">
            <mxPoint x="-3203.83" y="880.2300000000009" as="sourcePoint" />
            <mxPoint x="-3193.83" y="920.2300000000009" as="targetPoint" />
          </mxGeometry>
        </mxCell>
        <mxCell id="dvFQtftQSCuBPZ-nTVd1-321" value="" style="endArrow=none;html=1;" edge="1" parent="1">
          <mxGeometry width="50" height="50" relative="1" as="geometry">
            <mxPoint x="-3203.83" y="920.2300000000009" as="sourcePoint" />
            <mxPoint x="-3193.83" y="880.2300000000009" as="targetPoint" />
          </mxGeometry>
        </mxCell>
        <mxCell id="dvFQtftQSCuBPZ-nTVd1-322" value="&lt;b&gt;&lt;font face=&quot;Times New Roman&quot;&gt;hready&lt;/font&gt;&lt;/b&gt;" style="text;html=1;strokeColor=none;fillColor=none;align=center;verticalAlign=middle;whiteSpace=wrap;rounded=0;" vertex="1" parent="1">
          <mxGeometry x="-3333.83" y="1131.1700000000003" width="40" height="20" as="geometry" />
        </mxCell>
        <mxCell id="dvFQtftQSCuBPZ-nTVd1-323" value="" style="endArrow=none;html=1;" edge="1" parent="1">
          <mxGeometry width="50" height="50" relative="1" as="geometry">
            <mxPoint x="-3283.83" y="1161.170000000001" as="sourcePoint" />
            <mxPoint x="-3123.83" y="1160.8199999999997" as="targetPoint" />
          </mxGeometry>
        </mxCell>
        <mxCell id="dvFQtftQSCuBPZ-nTVd1-324" value="" style="endArrow=none;html=1;" edge="1" parent="1">
          <mxGeometry width="50" height="50" relative="1" as="geometry">
            <mxPoint x="-3123.83" y="1160.3199999999997" as="sourcePoint" />
            <mxPoint x="-3113.83" y="1120.3199999999997" as="targetPoint" />
          </mxGeometry>
        </mxCell>
        <mxCell id="dvFQtftQSCuBPZ-nTVd1-325" value="" style="endArrow=none;html=1;" edge="1" parent="1">
          <mxGeometry width="50" height="50" relative="1" as="geometry">
            <mxPoint x="-3113.83" y="1120.3199999999997" as="sourcePoint" />
            <mxPoint x="-3043.83" y="1120.3199999999997" as="targetPoint" />
          </mxGeometry>
        </mxCell>
        <mxCell id="dvFQtftQSCuBPZ-nTVd1-326" value="" style="endArrow=none;html=1;" edge="1" parent="1">
          <mxGeometry width="50" height="50" relative="1" as="geometry">
            <mxPoint x="-3043.83" y="1120.3199999999997" as="sourcePoint" />
            <mxPoint x="-3033.83" y="1160.3199999999997" as="targetPoint" />
          </mxGeometry>
        </mxCell>
        <mxCell id="dvFQtftQSCuBPZ-nTVd1-327" value="" style="endArrow=none;html=1;" edge="1" parent="1">
          <mxGeometry width="50" height="50" relative="1" as="geometry">
            <mxPoint x="-3033.83" y="1160.3199999999997" as="sourcePoint" />
            <mxPoint x="-2963.83" y="1160.3199999999997" as="targetPoint" />
          </mxGeometry>
        </mxCell>
        <mxCell id="dvFQtftQSCuBPZ-nTVd1-328" value="" style="endArrow=none;html=1;" edge="1" parent="1">
          <mxGeometry width="50" height="50" relative="1" as="geometry">
            <mxPoint x="-3113.83" y="959.8200000000002" as="sourcePoint" />
            <mxPoint x="-3042" y="959.6399999999999" as="targetPoint" />
          </mxGeometry>
        </mxCell>
        <mxCell id="dvFQtftQSCuBPZ-nTVd1-329" value="" style="endArrow=none;html=1;" edge="1" parent="1">
          <mxGeometry width="50" height="50" relative="1" as="geometry">
            <mxPoint x="-3113.83" y="999.8200000000002" as="sourcePoint" />
            <mxPoint x="-3042" y="999.6399999999999" as="targetPoint" />
          </mxGeometry>
        </mxCell>
        <mxCell id="dvFQtftQSCuBPZ-nTVd1-330" value="&lt;b&gt;&lt;font face=&quot;Times New Roman&quot;&gt;default_slv_sel&lt;/font&gt;&lt;/b&gt;" style="text;html=1;strokeColor=none;fillColor=none;align=center;verticalAlign=middle;whiteSpace=wrap;rounded=0;" vertex="1" parent="1">
          <mxGeometry x="-3334" y="1209.9900000000002" width="40" height="20" as="geometry" />
        </mxCell>
        <mxCell id="dvFQtftQSCuBPZ-nTVd1-331" value="" style="endArrow=none;html=1;" edge="1" parent="1">
          <mxGeometry width="50" height="50" relative="1" as="geometry">
            <mxPoint x="-3283.83" y="1239.8199999999997" as="sourcePoint" />
            <mxPoint x="-3203.83" y="1239.8199999999997" as="targetPoint" />
          </mxGeometry>
        </mxCell>
        <mxCell id="dvFQtftQSCuBPZ-nTVd1-332" value="" style="endArrow=none;html=1;" edge="1" parent="1">
          <mxGeometry width="50" height="50" relative="1" as="geometry">
            <mxPoint x="-3203.83" y="1239.8199999999997" as="sourcePoint" />
            <mxPoint x="-3193.83" y="1199.8199999999997" as="targetPoint" />
          </mxGeometry>
        </mxCell>
        <mxCell id="dvFQtftQSCuBPZ-nTVd1-333" value="" style="endArrow=none;html=1;" edge="1" parent="1">
          <mxGeometry width="50" height="50" relative="1" as="geometry">
            <mxPoint x="-3193.83" y="1199.8199999999997" as="sourcePoint" />
            <mxPoint x="-3043.83" y="1199.8199999999997" as="targetPoint" />
          </mxGeometry>
        </mxCell>
        <mxCell id="dvFQtftQSCuBPZ-nTVd1-334" value="&lt;b&gt;&lt;font face=&quot;Times New Roman&quot;&gt;hreadyout&lt;/font&gt;&lt;/b&gt;" style="text;html=1;strokeColor=none;fillColor=none;align=center;verticalAlign=middle;whiteSpace=wrap;rounded=0;" vertex="1" parent="1">
          <mxGeometry x="-3333.83" y="1289.8200000000004" width="40" height="20" as="geometry" />
        </mxCell>
        <mxCell id="dvFQtftQSCuBPZ-nTVd1-335" value="&lt;b&gt;&lt;font face=&quot;Times New Roman&quot;&gt;hresp&lt;/font&gt;&lt;/b&gt;" style="text;html=1;strokeColor=none;fillColor=none;align=center;verticalAlign=middle;whiteSpace=wrap;rounded=0;" vertex="1" parent="1">
          <mxGeometry x="-3333.83" y="1369.8200000000004" width="40" height="20" as="geometry" />
        </mxCell>
        <mxCell id="dvFQtftQSCuBPZ-nTVd1-336" value="" style="endArrow=none;html=1;" edge="1" parent="1">
          <mxGeometry width="50" height="50" relative="1" as="geometry">
            <mxPoint x="-3283.83" y="1319.8199999999997" as="sourcePoint" />
            <mxPoint x="-3123.83" y="1319.8199999999997" as="targetPoint" />
          </mxGeometry>
        </mxCell>
        <mxCell id="dvFQtftQSCuBPZ-nTVd1-337" value="" style="endArrow=none;html=1;" edge="1" parent="1">
          <mxGeometry width="50" height="50" relative="1" as="geometry">
            <mxPoint x="-3123.83" y="1319.8199999999997" as="sourcePoint" />
            <mxPoint x="-3113.83" y="1279.8199999999997" as="targetPoint" />
          </mxGeometry>
        </mxCell>
        <mxCell id="dvFQtftQSCuBPZ-nTVd1-338" value="" style="endArrow=none;html=1;" edge="1" parent="1">
          <mxGeometry width="50" height="50" relative="1" as="geometry">
            <mxPoint x="-3113.83" y="1279.8199999999997" as="sourcePoint" />
            <mxPoint x="-3043.83" y="1279.8199999999997" as="targetPoint" />
          </mxGeometry>
        </mxCell>
        <mxCell id="dvFQtftQSCuBPZ-nTVd1-339" value="" style="endArrow=none;html=1;" edge="1" parent="1">
          <mxGeometry width="50" height="50" relative="1" as="geometry">
            <mxPoint x="-3203.83" y="1359.8199999999997" as="sourcePoint" />
            <mxPoint x="-3043.83" y="1359.8199999999997" as="targetPoint" />
          </mxGeometry>
        </mxCell>
        <mxCell id="dvFQtftQSCuBPZ-nTVd1-340" value="" style="endArrow=none;html=1;" edge="1" parent="1">
          <mxGeometry width="50" height="50" relative="1" as="geometry">
            <mxPoint x="-3043.83" y="1359.4799999999996" as="sourcePoint" />
            <mxPoint x="-3033.83" y="1399.4799999999996" as="targetPoint" />
          </mxGeometry>
        </mxCell>
        <mxCell id="dvFQtftQSCuBPZ-nTVd1-341" value="" style="endArrow=none;html=1;" edge="1" parent="1">
          <mxGeometry width="50" height="50" relative="1" as="geometry">
            <mxPoint x="-3033.83" y="1399.4799999999996" as="sourcePoint" />
            <mxPoint x="-2963.83" y="1399.4799999999996" as="targetPoint" />
          </mxGeometry>
        </mxCell>
        <mxCell id="dvFQtftQSCuBPZ-nTVd1-342" value="" style="endArrow=none;html=1;" edge="1" parent="1">
          <mxGeometry width="50" height="50" relative="1" as="geometry">
            <mxPoint x="-3113" y="880.0300000000002" as="sourcePoint" />
            <mxPoint x="-3042" y="879.6399999999999" as="targetPoint" />
          </mxGeometry>
        </mxCell>
        <mxCell id="dvFQtftQSCuBPZ-nTVd1-343" value="" style="endArrow=none;html=1;" edge="1" parent="1">
          <mxGeometry width="50" height="50" relative="1" as="geometry">
            <mxPoint x="-3113" y="920.0300000000002" as="sourcePoint" />
            <mxPoint x="-3042" y="919.6399999999999" as="targetPoint" />
          </mxGeometry>
        </mxCell>
        <mxCell id="dvFQtftQSCuBPZ-nTVd1-344" value="&lt;b&gt;&lt;font face=&quot;Times New Roman&quot;&gt;IDLE&lt;/font&gt;&lt;/b&gt;" style="text;html=1;strokeColor=none;fillColor=none;align=center;verticalAlign=middle;whiteSpace=wrap;rounded=0;" vertex="1" parent="1">
          <mxGeometry x="-3103" y="889.8600000000001" width="40" height="20" as="geometry" />
        </mxCell>
        <mxCell id="dvFQtftQSCuBPZ-nTVd1-345" value="" style="endArrow=none;html=1;" edge="1" parent="1">
          <mxGeometry width="50" height="50" relative="1" as="geometry">
            <mxPoint x="-3213.83" y="1399.8199999999997" as="sourcePoint" />
            <mxPoint x="-3203.83" y="1359.8199999999997" as="targetPoint" />
          </mxGeometry>
        </mxCell>
        <mxCell id="dvFQtftQSCuBPZ-nTVd1-346" value="" style="endArrow=none;html=1;" edge="1" parent="1">
          <mxGeometry width="50" height="50" relative="1" as="geometry">
            <mxPoint x="-3283.83" y="1399.8199999999997" as="sourcePoint" />
            <mxPoint x="-3213.83" y="1399.8199999999997" as="targetPoint" />
          </mxGeometry>
        </mxCell>
        <mxCell id="dvFQtftQSCuBPZ-nTVd1-347" value="" style="endArrow=classic;html=1;fillColor=#dae8fc;strokeColor=#6c8ebf;" edge="1" parent="1">
          <mxGeometry width="50" height="50" relative="1" as="geometry">
            <mxPoint x="-3113.83" y="898.1533333333341" as="sourcePoint" />
            <mxPoint x="-3114.25" y="1279.3199999999997" as="targetPoint" />
          </mxGeometry>
        </mxCell>
        <mxCell id="dvFQtftQSCuBPZ-nTVd1-348" value="" style="endArrow=none;html=1;" edge="1" parent="1">
          <mxGeometry width="50" height="50" relative="1" as="geometry">
            <mxPoint x="-3043.83" y="1199.8199999999997" as="sourcePoint" />
            <mxPoint x="-3033.83" y="1239.8199999999997" as="targetPoint" />
          </mxGeometry>
        </mxCell>
        <mxCell id="dvFQtftQSCuBPZ-nTVd1-349" value="" style="endArrow=none;html=1;" edge="1" parent="1">
          <mxGeometry width="50" height="50" relative="1" as="geometry">
            <mxPoint x="-3033.83" y="1239.8199999999997" as="sourcePoint" />
            <mxPoint x="-2963.83" y="1239.8199999999997" as="targetPoint" />
          </mxGeometry>
        </mxCell>
        <mxCell id="dvFQtftQSCuBPZ-nTVd1-350" value="" style="endArrow=none;html=1;" edge="1" parent="1">
          <mxGeometry width="50" height="50" relative="1" as="geometry">
            <mxPoint x="-3043.83" y="1279.8199999999997" as="sourcePoint" />
            <mxPoint x="-3033.83" y="1319.8199999999997" as="targetPoint" />
          </mxGeometry>
        </mxCell>
        <mxCell id="dvFQtftQSCuBPZ-nTVd1-351" value="" style="endArrow=none;html=1;" edge="1" parent="1">
          <mxGeometry width="50" height="50" relative="1" as="geometry">
            <mxPoint x="-3033.83" y="1319.8199999999997" as="sourcePoint" />
            <mxPoint x="-2963.83" y="1319.8199999999997" as="targetPoint" />
          </mxGeometry>
        </mxCell>
        <mxCell id="dvFQtftQSCuBPZ-nTVd1-352" value="" style="endArrow=none;html=1;" edge="1" parent="1">
          <mxGeometry width="50" height="50" relative="1" as="geometry">
            <mxPoint x="-3042" y="960.6400000000003" as="sourcePoint" />
            <mxPoint x="-3032" y="1000.6400000000012" as="targetPoint" />
          </mxGeometry>
        </mxCell>
        <mxCell id="dvFQtftQSCuBPZ-nTVd1-353" value="" style="endArrow=none;html=1;" edge="1" parent="1">
          <mxGeometry width="50" height="50" relative="1" as="geometry">
            <mxPoint x="-3042" y="1000.6400000000012" as="sourcePoint" />
            <mxPoint x="-3032" y="960.6400000000003" as="targetPoint" />
          </mxGeometry>
        </mxCell>
        <mxCell id="dvFQtftQSCuBPZ-nTVd1-354" value="" style="endArrow=none;html=1;" edge="1" parent="1">
          <mxGeometry width="50" height="50" relative="1" as="geometry">
            <mxPoint x="-3032" y="959.6399999999999" as="sourcePoint" />
            <mxPoint x="-2962" y="959.6399999999999" as="targetPoint" />
          </mxGeometry>
        </mxCell>
        <mxCell id="dvFQtftQSCuBPZ-nTVd1-355" value="" style="endArrow=none;html=1;" edge="1" parent="1">
          <mxGeometry width="50" height="50" relative="1" as="geometry">
            <mxPoint x="-3032" y="999.6399999999999" as="sourcePoint" />
            <mxPoint x="-2962" y="999.6399999999999" as="targetPoint" />
          </mxGeometry>
        </mxCell>
        <mxCell id="dvFQtftQSCuBPZ-nTVd1-356" value="&lt;b&gt;&lt;font face=&quot;Times New Roman&quot;&gt;IDLE&lt;/font&gt;&lt;/b&gt;" style="text;html=1;strokeColor=none;fillColor=none;align=center;verticalAlign=middle;whiteSpace=wrap;rounded=0;" vertex="1" parent="1">
          <mxGeometry x="-3017" y="969.58" width="40" height="20" as="geometry" />
        </mxCell>
        <mxCell id="dvFQtftQSCuBPZ-nTVd1-357" value="&lt;b&gt;&lt;font face=&quot;Times New Roman&quot;&gt;NONSEQ&lt;/font&gt;&lt;/b&gt;" style="text;html=1;strokeColor=none;fillColor=none;align=center;verticalAlign=middle;whiteSpace=wrap;rounded=0;" vertex="1" parent="1">
          <mxGeometry x="-3012" y="888.7" width="40" height="20" as="geometry" />
        </mxCell>
        <mxCell id="dvFQtftQSCuBPZ-nTVd1-358" value="" style="endArrow=none;html=1;" edge="1" parent="1">
          <mxGeometry width="50" height="50" relative="1" as="geometry">
            <mxPoint x="-3032" y="879.6399999999999" as="sourcePoint" />
            <mxPoint x="-2882" y="879.6399999999999" as="targetPoint" />
          </mxGeometry>
        </mxCell>
        <mxCell id="dvFQtftQSCuBPZ-nTVd1-359" value="" style="endArrow=none;html=1;" edge="1" parent="1">
          <mxGeometry width="50" height="50" relative="1" as="geometry">
            <mxPoint x="-3032" y="919.6399999999999" as="sourcePoint" />
            <mxPoint x="-2882" y="919.6399999999999" as="targetPoint" />
          </mxGeometry>
        </mxCell>
        <mxCell id="dvFQtftQSCuBPZ-nTVd1-360" value="" style="endArrow=none;html=1;" edge="1" parent="1">
          <mxGeometry width="50" height="50" relative="1" as="geometry">
            <mxPoint x="-2881.83" y="879.5" as="sourcePoint" />
            <mxPoint x="-2872" y="919.9099999999999" as="targetPoint" />
          </mxGeometry>
        </mxCell>
        <mxCell id="dvFQtftQSCuBPZ-nTVd1-361" value="" style="endArrow=none;html=1;" edge="1" parent="1">
          <mxGeometry width="50" height="50" relative="1" as="geometry">
            <mxPoint x="-2882" y="919.9099999999999" as="sourcePoint" />
            <mxPoint x="-2872" y="879.9099999999999" as="targetPoint" />
            <Array as="points" />
          </mxGeometry>
        </mxCell>
        <mxCell id="dvFQtftQSCuBPZ-nTVd1-362" value="" style="endArrow=none;html=1;" edge="1" parent="1">
          <mxGeometry width="50" height="50" relative="1" as="geometry">
            <mxPoint x="-3042" y="879.4599999999996" as="sourcePoint" />
            <mxPoint x="-3032" y="919.4599999999996" as="targetPoint" />
          </mxGeometry>
        </mxCell>
        <mxCell id="dvFQtftQSCuBPZ-nTVd1-363" value="" style="endArrow=none;html=1;" edge="1" parent="1">
          <mxGeometry width="50" height="50" relative="1" as="geometry">
            <mxPoint x="-3042" y="919.4599999999996" as="sourcePoint" />
            <mxPoint x="-3032" y="879.4599999999996" as="targetPoint" />
          </mxGeometry>
        </mxCell>
        <mxCell id="dvFQtftQSCuBPZ-nTVd1-364" value="" style="endArrow=none;html=1;" edge="1" parent="1">
          <mxGeometry width="50" height="50" relative="1" as="geometry">
            <mxPoint x="-2961.83" y="959.2299999999996" as="sourcePoint" />
            <mxPoint x="-2952" y="999.6399999999999" as="targetPoint" />
          </mxGeometry>
        </mxCell>
        <mxCell id="dvFQtftQSCuBPZ-nTVd1-365" value="" style="endArrow=none;html=1;" edge="1" parent="1">
          <mxGeometry width="50" height="50" relative="1" as="geometry">
            <mxPoint x="-2962" y="999.6399999999999" as="sourcePoint" />
            <mxPoint x="-2952" y="959.6399999999999" as="targetPoint" />
          </mxGeometry>
        </mxCell>
        <mxCell id="dvFQtftQSCuBPZ-nTVd1-366" value="&lt;b&gt;&lt;font face=&quot;Times New Roman&quot;&gt;SLVSEL&lt;/font&gt;&lt;/b&gt;" style="text;html=1;strokeColor=none;fillColor=none;align=center;verticalAlign=middle;whiteSpace=wrap;rounded=0;" vertex="1" parent="1">
          <mxGeometry x="-2935.17" y="969.7900000000002" width="40" height="20" as="geometry" />
        </mxCell>
        <mxCell id="dvFQtftQSCuBPZ-nTVd1-367" value="" style="endArrow=none;html=1;" edge="1" parent="1">
          <mxGeometry width="50" height="50" relative="1" as="geometry">
            <mxPoint x="-2952" y="959.8200000000002" as="sourcePoint" />
            <mxPoint x="-2880.17" y="959.6399999999999" as="targetPoint" />
          </mxGeometry>
        </mxCell>
        <mxCell id="dvFQtftQSCuBPZ-nTVd1-368" value="" style="endArrow=none;html=1;" edge="1" parent="1">
          <mxGeometry width="50" height="50" relative="1" as="geometry">
            <mxPoint x="-2952" y="999.8200000000002" as="sourcePoint" />
            <mxPoint x="-2880.17" y="999.6399999999999" as="targetPoint" />
          </mxGeometry>
        </mxCell>
        <mxCell id="dvFQtftQSCuBPZ-nTVd1-369" value="" style="endArrow=none;html=1;" edge="1" parent="1">
          <mxGeometry width="50" height="50" relative="1" as="geometry">
            <mxPoint x="-3562" y="119.72000000000025" as="sourcePoint" />
            <mxPoint x="-3562" y="79.72000000000025" as="targetPoint" />
          </mxGeometry>
        </mxCell>
        <mxCell id="dvFQtftQSCuBPZ-nTVd1-370" value="" style="endArrow=none;html=1;" edge="1" parent="1">
          <mxGeometry width="50" height="50" relative="1" as="geometry">
            <mxPoint x="-3562" y="79.72000000000025" as="sourcePoint" />
            <mxPoint x="-3522" y="79.72000000000025" as="targetPoint" />
          </mxGeometry>
        </mxCell>
        <mxCell id="dvFQtftQSCuBPZ-nTVd1-371" value="" style="endArrow=none;html=1;" edge="1" parent="1">
          <mxGeometry width="50" height="50" relative="1" as="geometry">
            <mxPoint x="-3522" y="79.72000000000025" as="sourcePoint" />
            <mxPoint x="-3522" y="119.72000000000025" as="targetPoint" />
          </mxGeometry>
        </mxCell>
        <mxCell id="dvFQtftQSCuBPZ-nTVd1-372" value="" style="endArrow=none;html=1;" edge="1" parent="1">
          <mxGeometry width="50" height="50" relative="1" as="geometry">
            <mxPoint x="-3522" y="119.72000000000025" as="sourcePoint" />
            <mxPoint x="-3482" y="119.72000000000025" as="targetPoint" />
          </mxGeometry>
        </mxCell>
        <mxCell id="dvFQtftQSCuBPZ-nTVd1-373" value="" style="endArrow=none;html=1;" edge="1" parent="1">
          <mxGeometry width="50" height="50" relative="1" as="geometry">
            <mxPoint x="-3482.4800000000005" y="119.72000000000025" as="sourcePoint" />
            <mxPoint x="-3482.4800000000005" y="79.72000000000025" as="targetPoint" />
          </mxGeometry>
        </mxCell>
        <mxCell id="dvFQtftQSCuBPZ-nTVd1-374" value="" style="endArrow=none;html=1;" edge="1" parent="1">
          <mxGeometry width="50" height="50" relative="1" as="geometry">
            <mxPoint x="-3482.4800000000005" y="79.72000000000025" as="sourcePoint" />
            <mxPoint x="-3442.4800000000005" y="79.72000000000025" as="targetPoint" />
            <Array as="points">
              <mxPoint x="-3452.48" y="79.71999999999997" />
            </Array>
          </mxGeometry>
        </mxCell>
        <mxCell id="dvFQtftQSCuBPZ-nTVd1-375" value="" style="endArrow=none;html=1;" edge="1" parent="1">
          <mxGeometry width="50" height="50" relative="1" as="geometry">
            <mxPoint x="-3442.4800000000005" y="79.72000000000025" as="sourcePoint" />
            <mxPoint x="-3442.4800000000005" y="119.72000000000025" as="targetPoint" />
          </mxGeometry>
        </mxCell>
        <mxCell id="dvFQtftQSCuBPZ-nTVd1-376" value="" style="endArrow=none;html=1;" edge="1" parent="1">
          <mxGeometry width="50" height="50" relative="1" as="geometry">
            <mxPoint x="-3562" y="160" as="sourcePoint" />
            <mxPoint x="-3552" y="200" as="targetPoint" />
          </mxGeometry>
        </mxCell>
        <mxCell id="dvFQtftQSCuBPZ-nTVd1-377" value="" style="endArrow=none;html=1;" edge="1" parent="1">
          <mxGeometry width="50" height="50" relative="1" as="geometry">
            <mxPoint x="-3562" y="200" as="sourcePoint" />
            <mxPoint x="-3552" y="160" as="targetPoint" />
          </mxGeometry>
        </mxCell>
        <mxCell id="dvFQtftQSCuBPZ-nTVd1-378" value="" style="endArrow=none;html=1;" edge="1" parent="1">
          <mxGeometry width="50" height="50" relative="1" as="geometry">
            <mxPoint x="-3552" y="160" as="sourcePoint" />
            <mxPoint x="-3402" y="160" as="targetPoint" />
          </mxGeometry>
        </mxCell>
        <mxCell id="dvFQtftQSCuBPZ-nTVd1-379" value="" style="endArrow=none;html=1;" edge="1" parent="1">
          <mxGeometry width="50" height="50" relative="1" as="geometry">
            <mxPoint x="-3552" y="200" as="sourcePoint" />
            <mxPoint x="-3402" y="200" as="targetPoint" />
          </mxGeometry>
        </mxCell>
        <mxCell id="dvFQtftQSCuBPZ-nTVd1-380" value="&lt;b&gt;&lt;font face=&quot;Times New Roman&quot;&gt;NONSEQ&lt;/font&gt;&lt;/b&gt;" style="text;html=1;strokeColor=none;fillColor=none;align=center;verticalAlign=middle;whiteSpace=wrap;rounded=0;" vertex="1" parent="1">
          <mxGeometry x="-3532" y="171.42000000000004" width="40" height="20" as="geometry" />
        </mxCell>
        <mxCell id="dvFQtftQSCuBPZ-nTVd1-381" value="" style="endArrow=none;html=1;" edge="1" parent="1">
          <mxGeometry width="50" height="50" relative="1" as="geometry">
            <mxPoint x="-3562" y="241.69999999999982" as="sourcePoint" />
            <mxPoint x="-3552" y="281.6999999999998" as="targetPoint" />
          </mxGeometry>
        </mxCell>
        <mxCell id="dvFQtftQSCuBPZ-nTVd1-382" value="" style="endArrow=none;html=1;" edge="1" parent="1">
          <mxGeometry width="50" height="50" relative="1" as="geometry">
            <mxPoint x="-3562" y="281.6999999999998" as="sourcePoint" />
            <mxPoint x="-3552" y="241.69999999999982" as="targetPoint" />
          </mxGeometry>
        </mxCell>
        <mxCell id="dvFQtftQSCuBPZ-nTVd1-383" value="" style="endArrow=none;html=1;fillColor=#99FFFF;" edge="1" parent="1">
          <mxGeometry width="50" height="50" relative="1" as="geometry">
            <mxPoint x="-3552" y="241.69999999999982" as="sourcePoint" />
            <mxPoint x="-3482" y="241.69999999999982" as="targetPoint" />
          </mxGeometry>
        </mxCell>
        <mxCell id="dvFQtftQSCuBPZ-nTVd1-384" value="" style="endArrow=none;html=1;fillColor=#99FFFF;" edge="1" parent="1">
          <mxGeometry width="50" height="50" relative="1" as="geometry">
            <mxPoint x="-3552" y="281.6999999999998" as="sourcePoint" />
            <mxPoint x="-3482" y="281.6999999999998" as="targetPoint" />
          </mxGeometry>
        </mxCell>
        <mxCell id="dvFQtftQSCuBPZ-nTVd1-385" value="" style="endArrow=none;html=1;" edge="1" parent="1">
          <mxGeometry width="50" height="50" relative="1" as="geometry">
            <mxPoint x="-3442" y="119.52000000000044" as="sourcePoint" />
            <mxPoint x="-3402" y="119.52000000000044" as="targetPoint" />
          </mxGeometry>
        </mxCell>
        <mxCell id="dvFQtftQSCuBPZ-nTVd1-386" value="&lt;b&gt;&lt;font face=&quot;Times New Roman&quot;&gt;IDLE&lt;/font&gt;&lt;/b&gt;" style="text;html=1;strokeColor=none;fillColor=none;align=center;verticalAlign=middle;whiteSpace=wrap;rounded=0;" vertex="1" parent="1">
          <mxGeometry x="-3542" y="251.93999999999988" width="40" height="20" as="geometry" />
        </mxCell>
        <mxCell id="dvFQtftQSCuBPZ-nTVd1-387" value="" style="endArrow=none;html=1;" edge="1" parent="1">
          <mxGeometry width="50" height="50" relative="1" as="geometry">
            <mxPoint x="-3482" y="241.69999999999982" as="sourcePoint" />
            <mxPoint x="-3472" y="281.6999999999998" as="targetPoint" />
          </mxGeometry>
        </mxCell>
        <mxCell id="dvFQtftQSCuBPZ-nTVd1-388" value="" style="endArrow=none;html=1;" edge="1" parent="1">
          <mxGeometry width="50" height="50" relative="1" as="geometry">
            <mxPoint x="-3482" y="281.6999999999998" as="sourcePoint" />
            <mxPoint x="-3472" y="241.69999999999982" as="targetPoint" />
          </mxGeometry>
        </mxCell>
        <mxCell id="dvFQtftQSCuBPZ-nTVd1-389" value="" style="endArrow=none;html=1;fillColor=#99FFFF;" edge="1" parent="1">
          <mxGeometry width="50" height="50" relative="1" as="geometry">
            <mxPoint x="-3472" y="241.69999999999982" as="sourcePoint" />
            <mxPoint x="-3402" y="241.69999999999982" as="targetPoint" />
          </mxGeometry>
        </mxCell>
        <mxCell id="dvFQtftQSCuBPZ-nTVd1-390" value="" style="endArrow=none;html=1;fillColor=#99FFFF;" edge="1" parent="1">
          <mxGeometry width="50" height="50" relative="1" as="geometry">
            <mxPoint x="-3472" y="281.6999999999998" as="sourcePoint" />
            <mxPoint x="-3402" y="281.6999999999998" as="targetPoint" />
          </mxGeometry>
        </mxCell>
        <mxCell id="dvFQtftQSCuBPZ-nTVd1-391" value="&lt;b&gt;&lt;font face=&quot;Times New Roman&quot;&gt;SLVSEL&lt;/font&gt;&lt;/b&gt;" style="text;html=1;strokeColor=none;fillColor=none;align=center;verticalAlign=middle;whiteSpace=wrap;rounded=0;" vertex="1" parent="1">
          <mxGeometry x="-3462" y="251.93999999999988" width="40" height="20" as="geometry" />
        </mxCell>
        <mxCell id="dvFQtftQSCuBPZ-nTVd1-392" value="C5" style="text;html=1;strokeColor=none;fillColor=none;align=center;verticalAlign=middle;whiteSpace=wrap;rounded=0;" vertex="1" parent="1">
          <mxGeometry x="-3542.41" y="330.4400000000001" width="40" height="20" as="geometry" />
        </mxCell>
        <mxCell id="dvFQtftQSCuBPZ-nTVd1-393" value="" style="endArrow=none;html=1;" edge="1" parent="1">
          <mxGeometry width="50" height="50" relative="1" as="geometry">
            <mxPoint x="-3562" y="320.4300000000003" as="sourcePoint" />
            <mxPoint x="-3552" y="360.4300000000003" as="targetPoint" />
          </mxGeometry>
        </mxCell>
        <mxCell id="dvFQtftQSCuBPZ-nTVd1-394" value="" style="endArrow=none;html=1;" edge="1" parent="1">
          <mxGeometry width="50" height="50" relative="1" as="geometry">
            <mxPoint x="-3562" y="360.4300000000003" as="sourcePoint" />
            <mxPoint x="-3552" y="320.4300000000003" as="targetPoint" />
          </mxGeometry>
        </mxCell>
        <mxCell id="dvFQtftQSCuBPZ-nTVd1-395" value="" style="endArrow=none;html=1;" edge="1" parent="1">
          <mxGeometry width="50" height="50" relative="1" as="geometry">
            <mxPoint x="-3552" y="320" as="sourcePoint" />
            <mxPoint x="-3402" y="320" as="targetPoint" />
          </mxGeometry>
        </mxCell>
        <mxCell id="dvFQtftQSCuBPZ-nTVd1-396" value="" style="endArrow=none;html=1;" edge="1" parent="1">
          <mxGeometry width="50" height="50" relative="1" as="geometry">
            <mxPoint x="-3552" y="360" as="sourcePoint" />
            <mxPoint x="-3402" y="360" as="targetPoint" />
          </mxGeometry>
        </mxCell>
        <mxCell id="dvFQtftQSCuBPZ-nTVd1-397" value="" style="endArrow=classic;html=1;fillColor=#dae8fc;strokeColor=#6c8ebf;" edge="1" parent="1">
          <mxGeometry width="50" height="50" relative="1" as="geometry">
            <mxPoint x="-3792" y="1239.67" as="sourcePoint" />
            <mxPoint x="-3792" y="440" as="targetPoint" />
          </mxGeometry>
        </mxCell>
        <mxCell id="dvFQtftQSCuBPZ-nTVd1-398" value="" style="endArrow=classic;html=1;fillColor=#dae8fc;strokeColor=#6c8ebf;" edge="1" parent="1">
          <mxGeometry width="50" height="50" relative="1" as="geometry">
            <mxPoint x="-3632" y="1198.67" as="sourcePoint" />
            <mxPoint x="-3632" y="399" as="targetPoint" />
          </mxGeometry>
        </mxCell>
        <mxCell id="dvFQtftQSCuBPZ-nTVd1-399" value="" style="endArrow=none;html=1;" edge="1" parent="1">
          <mxGeometry width="50" height="50" relative="1" as="geometry">
            <mxPoint x="-3562" y="400" as="sourcePoint" />
            <mxPoint x="-3552" y="440" as="targetPoint" />
          </mxGeometry>
        </mxCell>
        <mxCell id="dvFQtftQSCuBPZ-nTVd1-400" value="" style="endArrow=none;html=1;" edge="1" parent="1">
          <mxGeometry width="50" height="50" relative="1" as="geometry">
            <mxPoint x="-3552" y="440" as="sourcePoint" />
            <mxPoint x="-3402" y="440" as="targetPoint" />
          </mxGeometry>
        </mxCell>
        <mxCell id="dvFQtftQSCuBPZ-nTVd1-401" value="" style="endArrow=none;html=1;" edge="1" parent="1">
          <mxGeometry width="50" height="50" relative="1" as="geometry">
            <mxPoint x="-3482" y="1080" as="sourcePoint" />
            <mxPoint x="-3472" y="1040" as="targetPoint" />
          </mxGeometry>
        </mxCell>
        <mxCell id="dvFQtftQSCuBPZ-nTVd1-402" value="" style="endArrow=none;html=1;" edge="1" parent="1">
          <mxGeometry width="50" height="50" relative="1" as="geometry">
            <mxPoint x="-3472" y="1040" as="sourcePoint" />
            <mxPoint x="-3362" y="1040" as="targetPoint" />
          </mxGeometry>
        </mxCell>
        <mxCell id="dvFQtftQSCuBPZ-nTVd1-403" value="" style="endArrow=classic;html=1;entryX=0.338;entryY=0.029;entryDx=0;entryDy=0;entryPerimeter=0;fillColor=#dae8fc;strokeColor=#6c8ebf;" edge="1" parent="1" source="dvFQtftQSCuBPZ-nTVd1-404" target="dvFQtftQSCuBPZ-nTVd1-189">
          <mxGeometry width="50" height="50" relative="1" as="geometry">
            <mxPoint x="-3242" y="128.06" as="sourcePoint" />
            <mxPoint x="-3192" y="78.06" as="targetPoint" />
          </mxGeometry>
        </mxCell>
        <mxCell id="dvFQtftQSCuBPZ-nTVd1-404" value="&lt;h1&gt;Why this design spend 1 delay cycle ?&lt;/h1&gt;&lt;div&gt;&lt;b&gt;&lt;font face=&quot;Times New Roman&quot;&gt;* When a master insert an IDLE burst, a delay cycle inserted will help arbiter grant another master immediately instead of waiting for another condition...&lt;/font&gt;&lt;/b&gt;&lt;br&gt;&lt;/div&gt;" style="text;html=1;strokeColor=none;fillColor=none;spacing=5;spacingTop=-20;whiteSpace=wrap;overflow=hidden;rounded=0;" vertex="1" parent="1">
          <mxGeometry x="-3322.17" y="82.44" width="460.34" height="90" as="geometry" />
        </mxCell>
        <mxCell id="dvFQtftQSCuBPZ-nTVd1-405" value="" style="endArrow=none;html=1;" edge="1" parent="1">
          <mxGeometry width="50" height="50" relative="1" as="geometry">
            <mxPoint x="-3552" y="1320" as="sourcePoint" />
            <mxPoint x="-3362" y="1320" as="targetPoint" />
          </mxGeometry>
        </mxCell>
        <mxCell id="dvFQtftQSCuBPZ-nTVd1-416" value="" style="rounded=0;whiteSpace=wrap;html=1;" vertex="1" parent="1">
          <mxGeometry x="-2482" y="79.48000000000002" width="280" height="300" as="geometry" />
        </mxCell>
        <mxCell id="dvFQtftQSCuBPZ-nTVd1-417" value="" style="shape=flexArrow;endArrow=classic;html=1;width=50;endSize=7;fillColor=#99FFFF;" edge="1" parent="1">
          <mxGeometry width="50" height="50" relative="1" as="geometry">
            <mxPoint x="-2722" y="229.48000000000002" as="sourcePoint" />
            <mxPoint x="-2442" y="229.48000000000002" as="targetPoint" />
          </mxGeometry>
        </mxCell>
        <mxCell id="dvFQtftQSCuBPZ-nTVd1-418" value="&lt;span style=&quot;background-color: rgb(153 , 255 , 255)&quot;&gt;&lt;b&gt;&lt;font face=&quot;Times New Roman&quot;&gt;AHB control signals&lt;/font&gt;&lt;/b&gt;&lt;/span&gt;" style="edgeLabel;html=1;align=center;verticalAlign=middle;resizable=0;points=[];" vertex="1" connectable="0" parent="dvFQtftQSCuBPZ-nTVd1-417">
          <mxGeometry x="-0.1071" y="-3" relative="1" as="geometry">
            <mxPoint x="5" y="-3" as="offset" />
          </mxGeometry>
        </mxCell>
        <mxCell id="dvFQtftQSCuBPZ-nTVd1-427" style="edgeStyle=orthogonalEdgeStyle;rounded=0;orthogonalLoop=1;jettySize=auto;html=1;fillColor=#99FFFF;" edge="1" parent="1" source="dvFQtftQSCuBPZ-nTVd1-420">
          <mxGeometry relative="1" as="geometry">
            <mxPoint x="-2282" y="229.48000000000002" as="targetPoint" />
          </mxGeometry>
        </mxCell>
        <mxCell id="dvFQtftQSCuBPZ-nTVd1-420" value="&lt;b&gt;&lt;font face=&quot;Times New Roman&quot;&gt;compare&lt;/font&gt;&lt;/b&gt;" style="ellipse;whiteSpace=wrap;html=1;aspect=fixed;" vertex="1" parent="1">
          <mxGeometry x="-2442" y="189.48000000000002" width="80" height="80" as="geometry" />
        </mxCell>
        <mxCell id="dvFQtftQSCuBPZ-nTVd1-421" value="" style="edgeStyle=orthogonalEdgeStyle;rounded=0;orthogonalLoop=1;jettySize=auto;html=1;fillColor=#99FFFF;" edge="1" parent="1" source="dvFQtftQSCuBPZ-nTVd1-422" target="dvFQtftQSCuBPZ-nTVd1-420">
          <mxGeometry relative="1" as="geometry" />
        </mxCell>
        <mxCell id="dvFQtftQSCuBPZ-nTVd1-422" value="&lt;b&gt;&lt;font face=&quot;Times New Roman&quot;&gt;ADDRMAP&lt;/font&gt;&lt;/b&gt;" style="rounded=0;whiteSpace=wrap;html=1;" vertex="1" parent="1">
          <mxGeometry x="-2462" y="89.48000000000002" width="120" height="60" as="geometry" />
        </mxCell>
        <mxCell id="dvFQtftQSCuBPZ-nTVd1-423" value="&lt;b&gt;&lt;font face=&quot;Times New Roman&quot;&gt;hreq&lt;/font&gt;&lt;/b&gt;" style="text;html=1;strokeColor=none;fillColor=none;align=center;verticalAlign=middle;whiteSpace=wrap;rounded=0;" vertex="1" parent="1">
          <mxGeometry x="-2342" y="209.48000000000002" width="40" height="20" as="geometry" />
        </mxCell>
        <mxCell id="dvFQtftQSCuBPZ-nTVd1-425" style="edgeStyle=orthogonalEdgeStyle;rounded=0;orthogonalLoop=1;jettySize=auto;html=1;entryX=0.5;entryY=1;entryDx=0;entryDy=0;fillColor=#99FFFF;" edge="1" parent="1" source="dvFQtftQSCuBPZ-nTVd1-424" target="dvFQtftQSCuBPZ-nTVd1-420">
          <mxGeometry relative="1" as="geometry" />
        </mxCell>
        <mxCell id="dvFQtftQSCuBPZ-nTVd1-424" value="&lt;b&gt;&lt;font face=&quot;Times New Roman&quot;&gt;NFF_FSM&lt;/font&gt;&lt;/b&gt;" style="rounded=0;whiteSpace=wrap;html=1;" vertex="1" parent="1">
          <mxGeometry x="-2462" y="309.48" width="120" height="60" as="geometry" />
        </mxCell>
        <mxCell id="dvFQtftQSCuBPZ-nTVd1-430" value="&lt;font color=&quot;#000099&quot;&gt;&lt;span style=&quot;background-color: rgb(153 , 255 , 255)&quot;&gt;&lt;font style=&quot;font-size: 14px&quot;&gt;&lt;b&gt;&lt;font face=&quot;Times New Roman&quot;&gt;NFF DECODER&lt;/font&gt;&lt;/b&gt;&lt;/font&gt;&lt;/span&gt;&lt;/font&gt;" style="text;html=1;strokeColor=none;fillColor=none;align=center;verticalAlign=middle;whiteSpace=wrap;rounded=0;" vertex="1" parent="1">
          <mxGeometry x="-2327" y="104.48000000000002" width="110" height="30" as="geometry" />
        </mxCell>
      </root>
    </mxGraphModel>
  </diagram>
</mxfile>
